<?xml version="1.0" encoding="utf-8"?>
<svg version="1.1" xmlns:xlink="http://www.w3.org/1999/xlink" width="20px" height="20px" xmlns="http://www.w3.org/2000/svg">
  <g transform="matrix(1 0 0 1 -1446 -39 )">
    <path d="M 12.265625 12.265625  C 13.3193108974358 11.2119391025641  13.8461538461538 9.94391025641026  13.8461538461538 8.46153846153846  C 13.8461538461538 6.97916666666666  13.3193108974358 5.71113782051283  12.265625 4.65745192307692  C 11.2119391025642 3.60376602564103  9.94391025641028 3.07692307692308  8.46153846153845 3.07692307692308  C 6.97916666666663 3.07692307692308  5.71113782051282 3.60376602564103  4.65745192307702 4.65745192307692  C 3.60376602564099 5.71113782051283  3.07692307692298 6.97916666666666  3.07692307692298 8.46153846153846  C 3.07692307692298 9.94391025641026  3.60376602564099 11.2119391025641  4.65745192307702 12.265625  C 5.71113782051282 13.3193108974359  6.97916666666663 13.8461538461539  8.46153846153845 13.8461538461539  C 9.94391025641028 13.8461538461539  11.2119391025642 13.3193108974359  12.265625 12.265625  Z M 19.5552884615385 17.3798076923077  C 19.8517628205128 17.6762820512821  20 18.036858974359  20 18.4615384615385  C 20 18.8782051282051  19.8477564102565 19.2387820512821  19.5432692307693 19.5432692307692  C 19.238782051282 19.8477564102564  18.8782051282052 20  18.4615384615385 20  C 18.0288461538462 20  17.6682692307693 19.8477564102564  17.3798076923076 19.5432692307692  L 13.2572115384615 15.4326923076923  C 11.8229166666666 16.4262820512821  10.224358974359 16.9230769230769  8.46153846153845 16.9230769230769  C 7.3157051282052 16.9230769230769  6.21995192307702 16.7007211538461  5.17427884615381 16.2560096153846  C 4.12860576923072 15.8112980769231  3.22716346153845 15.2103365384615  2.46995192307702 14.453125  C 1.71274038461547 13.6959134615385  1.11177884615381 12.7944711538461  0.667067307692378 11.7487980769231  C 0.222355769230717 10.703125  0 9.6073717948718  0 8.46153846153846  C 0 7.31570512820511  0.222355769230717 6.21995192307692  0.667067307692378 5.17427884615386  C 1.11177884615381 4.12860576923077  1.71274038461547 3.22716346153846  2.46995192307702 2.46995192307692  C 3.22716346153845 1.71274038461538  4.12860576923072 1.11177884615385  5.17427884615381 0.667067307692314  C 6.21995192307702 0.222355769230774  7.3157051282052 0  8.46153846153845 0  C 9.60737179487182 0  10.703125 0.222355769230774  11.748798076923 0.667067307692314  C 12.7944711538462 1.11177884615385  13.6959134615385 1.71274038461538  14.453125 2.46995192307692  C 15.2103365384615 3.22716346153846  15.811298076923 4.12860576923077  16.2560096153845 5.17427884615386  C 16.7007211538462 6.21995192307692  16.923076923077 7.31570512820511  16.923076923077 8.46153846153846  C 16.923076923077 10.224358974359  16.426282051282 11.8229166666667  15.4326923076924 13.2572115384615  L 19.5552884615385 17.3798076923077  Z " fill-rule="nonzero" fill="#ffffff" stroke="none" transform="matrix(1 0 0 1 1446 39 )" />
  </g>
</svg>