<?xml version="1.0" encoding="utf-8"?>
<svg version="1.1" xmlns:xlink="http://www.w3.org/1999/xlink" width="25px" height="22px" xmlns="http://www.w3.org/2000/svg">
  <defs>
    <mask fill="white" id="clip238">
      <path d="M 12.7587890625 0.329861111111086  C 12.9195963541666 0.549768518518533  13 0.81018518518519  13 1.11111111111109  C 13 1.41203703703701  12.9195963541666 1.67245370370367  12.7587890625 1.89236111111109  L 7.0712890625 9.67013888888891  C 6.91048177083337 9.89004629629633  6.72005208333337 10  6.5 10  C 6.27994791666663 10  6.08951822916663 9.89004629629633  5.9287109375 9.67013888888891  L 0.2412109375 1.89236111111109  C 0.0804036458333712 1.67245370370367  0 1.41203703703701  0 1.11111111111109  C 0 0.81018518518519  0.0804036458333712 0.549768518518533  0.2412109375 0.329861111111086  C 0.402018229166629 0.109953703703667  0.592447916666629 0  0.8125 0  L 12.1875 0  C 12.4075520833334 0  12.5979817708334 0.109953703703667  12.7587890625 0.329861111111086  Z " fill-rule="evenodd" />
    </mask>
    <filter x="262px" y="42px" width="25px" height="22px" filterUnits="userSpaceOnUse" id="filter239">
      <feOffset dx="1" dy="1" in="SourceAlpha" result="shadowOffsetInner" />
      <feGaussianBlur stdDeviation="3" in="shadowOffsetInner" result="shadowGaussian" />
      <feComposite in2="shadowGaussian" operator="atop" in="SourceAlpha" result="shadowComposite" />
      <feColorMatrix type="matrix" values="0 0 0 0 0  0 0 0 0 0  0 0 0 0 0  0 0 0 0.349019607843137 0  " in="shadowComposite" />
    </filter>
    <g id="widget240">
      <path d="M 12.7587890625 0.329861111111086  C 12.9195963541666 0.549768518518533  13 0.81018518518519  13 1.11111111111109  C 13 1.41203703703701  12.9195963541666 1.67245370370367  12.7587890625 1.89236111111109  L 7.0712890625 9.67013888888891  C 6.91048177083337 9.89004629629633  6.72005208333337 10  6.5 10  C 6.27994791666663 10  6.08951822916663 9.89004629629633  5.9287109375 9.67013888888891  L 0.2412109375 1.89236111111109  C 0.0804036458333712 1.67245370370367  0 1.41203703703701  0 1.11111111111109  C 0 0.81018518518519  0.0804036458333712 0.549768518518533  0.2412109375 0.329861111111086  C 0.402018229166629 0.109953703703667  0.592447916666629 0  0.8125 0  L 12.1875 0  C 12.4075520833334 0  12.5979817708334 0.109953703703667  12.7587890625 0.329861111111086  Z " fill-rule="nonzero" fill="#666666" stroke="none" transform="matrix(1 0 0 1 267 47 )" />
      <path d="M 12.7587890625 0.329861111111086  C 12.9195963541666 0.549768518518533  13 0.81018518518519  13 1.11111111111109  C 13 1.41203703703701  12.9195963541666 1.67245370370367  12.7587890625 1.89236111111109  L 7.0712890625 9.67013888888891  C 6.91048177083337 9.89004629629633  6.72005208333337 10  6.5 10  C 6.27994791666663 10  6.08951822916663 9.89004629629633  5.9287109375 9.67013888888891  L 0.2412109375 1.89236111111109  C 0.0804036458333712 1.67245370370367  0 1.41203703703701  0 1.11111111111109  C 0 0.81018518518519  0.0804036458333712 0.549768518518533  0.2412109375 0.329861111111086  C 0.402018229166629 0.109953703703667  0.592447916666629 0  0.8125 0  L 12.1875 0  C 12.4075520833334 0  12.5979817708334 0.109953703703667  12.7587890625 0.329861111111086  Z " stroke-width="2" stroke="#e4e4e4" fill="none" transform="matrix(1 0 0 1 267 47 )" mask="url(#clip238)" />
    </g>
  </defs>
  <g transform="matrix(1 0 0 1 -262 -42 )">
    <use xlink:href="#widget240" filter="url(#filter239)" />
    <use xlink:href="#widget240" />
  </g>
</svg>