<?xml version="1.0" encoding="utf-8"?>
<svg version="1.1" xmlns:xlink="http://www.w3.org/1999/xlink" width="12px" height="8px" xmlns="http://www.w3.org/2000/svg">
  <defs>
    <mask fill="white" id="clip237">
      <path d="M 11.77734375 0.263888888888914  C 11.92578125 0.439814814814781  12 0.648148148148266  12 0.888888888888914  C 12 1.12962962962956  11.92578125 1.33796296296305  11.77734375 1.51388888888891  L 6.52734375 7.73611111111109  C 6.37890625000003 7.91203703703695  6.20312500000003 8  6 8  C 5.79687499999997 8  5.62109374999997 7.91203703703695  5.47265625 7.73611111111109  L 0.22265625 1.51388888888891  C 0.0742187500000284 1.33796296296305  0 1.12962962962956  0 0.888888888888914  C 0 0.648148148148266  0.0742187500000284 0.439814814814781  0.22265625 0.263888888888914  C 0.371093749999972 0.0879629629630472  0.546874999999972 0  0.75 0  L 11.25 0  C 11.453125 0  11.62890625 0.0879629629630472  11.77734375 0.263888888888914  Z " fill-rule="evenodd" />
    </mask>
  </defs>
  <g transform="matrix(1 0 0 1 -101 -163 )">
    <path d="M 11.77734375 0.263888888888914  C 11.92578125 0.439814814814781  12 0.648148148148266  12 0.888888888888914  C 12 1.12962962962956  11.92578125 1.33796296296305  11.77734375 1.51388888888891  L 6.52734375 7.73611111111109  C 6.37890625000003 7.91203703703695  6.20312500000003 8  6 8  C 5.79687499999997 8  5.62109374999997 7.91203703703695  5.47265625 7.73611111111109  L 0.22265625 1.51388888888891  C 0.0742187500000284 1.33796296296305  0 1.12962962962956  0 0.888888888888914  C 0 0.648148148148266  0.0742187500000284 0.439814814814781  0.22265625 0.263888888888914  C 0.371093749999972 0.0879629629630472  0.546874999999972 0  0.75 0  L 11.25 0  C 11.453125 0  11.62890625 0.0879629629630472  11.77734375 0.263888888888914  Z " fill-rule="nonzero" fill="#797979" stroke="none" transform="matrix(1 0 0 1 101 163 )" />
    <path d="M 11.77734375 0.263888888888914  C 11.92578125 0.439814814814781  12 0.648148148148266  12 0.888888888888914  C 12 1.12962962962956  11.92578125 1.33796296296305  11.77734375 1.51388888888891  L 6.52734375 7.73611111111109  C 6.37890625000003 7.91203703703695  6.20312500000003 8  6 8  C 5.79687499999997 8  5.62109374999997 7.91203703703695  5.47265625 7.73611111111109  L 0.22265625 1.51388888888891  C 0.0742187500000284 1.33796296296305  0 1.12962962962956  0 0.888888888888914  C 0 0.648148148148266  0.0742187500000284 0.439814814814781  0.22265625 0.263888888888914  C 0.371093749999972 0.0879629629630472  0.546874999999972 0  0.75 0  L 11.25 0  C 11.453125 0  11.62890625 0.0879629629630472  11.77734375 0.263888888888914  Z " stroke-width="2" stroke="#e4e4e4" fill="none" transform="matrix(1 0 0 1 101 163 )" mask="url(#clip237)" />
  </g>
</svg>