<?xml version="1.0" encoding="utf-8"?>
<svg version="1.1" xmlns:xlink="http://www.w3.org/1999/xlink" width="725px" height="410px" xmlns="http://www.w3.org/2000/svg">
  <g transform="matrix(1 0 0 1 -101 -90 )">
    <path d="M 101 90  L 826 90  L 826 500  L 101 500  L 101 90  " fill-rule="nonzero" fill="#cccccc" stroke="none" />
    <path d="M 130 119  L 797 119  L 797 471  L 130 471  L 130 119  " fill-rule="nonzero" fill="#ffffff" stroke="none" />
    <path d="M 508.75 213  C 491.53 213  478 199.47  478 182.25  C 478 165.03  491.53 151.5  508.75 151.5  C 525.97 151.5  539.5 165.03  539.5 182.25  C 539.5 199.47  525.97 213  508.75 213  " fill-rule="nonzero" fill="#cccccc" stroke="none" />
    <path d="M 141 461  L 141 278.95  L 302.5 196.2  L 528.6 348.688275862069  L 657.8 245.85  L 787 348.688275862069  L 787 461  L 141 461  " fill-rule="nonzero" fill="#169bd5" stroke="none" />
  </g>
</svg>