<svg t="1561444106755" class="icon" viewBox="0 0 1024 1024" version="1.1" xmlns="http://www.w3.org/2000/svg" p-id="10598" width="30" height="30"><path d="M751.815805 207.122732a49.95122 49.95122 0 1 0 99.902439 0 49.95122 49.95122 0 0 0-99.902439 0zM851.718244 494.342244a62.439024 62.439024 0 1 0 124.853073 0 62.439024 62.439024 0 0 0-124.878049 0zM726.840195 781.561756a74.926829 74.926829 0 1 0 149.853659 0 74.926829 74.926829 0 0 0-149.853659 0zM427.132878 918.92761a87.414634 87.414634 0 1 0 174.804293 0 87.414634 87.414634 0 0 0-174.829269 0zM127.425561 781.561756a99.902439 99.902439 0 1 0 199.804878 0 99.902439 99.902439 0 0 0-199.804878 0zM427.132878 107.220293a99.902439 99.902439 0 1 0 199.804878 0 99.902439 99.902439 0 0 0-199.804878 0zM127.425561 207.122732a99.902439 99.902439 0 1 0 199.804878 0 99.902439 99.902439 0 0 0-199.804878 0zM27.523122 506.830049a99.902439 99.902439 0 1 0 199.804878 0 99.902439 99.902439 0 0 0-199.804878 0z" p-id="10599" fill="#ffffff"></path></svg>