<svg t="1561445817140" class="icon" viewBox="0 0 1024 1024" version="1.1" xmlns="http://www.w3.org/2000/svg" p-id="12031" width="40" height="40"><path d="M505.100496 933.754956c0 49.769286-72.758538 90.122761-162.514449 90.122761s-162.392166-40.353475-162.392167-90.122761S252.952419 843.754478 342.70833 843.754478s162.514449 40.353475 162.514449 90.122761zM680.576971 843.754478c-89.755911 0-162.514449 40.353475-162.51445 90.122761s72.758538 90.122761 162.51445 90.122761 162.514449-40.353475 162.514449-90.122761S770.210599 843.754478 680.576971 843.754478z" fill="#FFC716" p-id="12032"></path><path d="M870.84972 501.361357s-12.228326-12.228326-25.434918-24.456652V333.466444a333.466444 333.466444 0 1 0-666.932887 0V476.904705C165.15304 489.133031 152.924714 501.361357 152.924714 501.361357c-21.644137 33.01648-73.369955 117.269644-73.369955 196.876044s21.76642 93.179842 29.959398 93.791259S145.098585 785.058514 178.359632 733.699546c45.122522 149.919274 177.18844 258.506807 333.221877 258.506807S800.169997 883.61882 845.047953 733.699546c33.505613 51.603535 61.753045 59.30738 69.334607 58.573681s29.959398-14.307141 29.959398-93.791259-51.725818-163.859565-73.369955-196.509195z" fill="#37464F" p-id="12033"></path><path d="M266.648144 558.834488a429.336518 429.336518 0 0 0-3.668498 58.451397c0 182.079771 113.478863 330.164796 253.37091 330.164796s253.37091-147.595892 253.37091-330.164796a429.336518 429.336518 0 0 0-3.913064-58.451397z m157.623119-405.858133c-36.684977 0-67.255792 40.842608-67.255792 91.223311s30.081681 91.22331 67.255792 91.22331 67.255792-40.842608 67.255792-91.22331-30.081681-91.22331-67.255792-91.223311zM435.399039 281.251493c-13.573442 0-24.456652-16.752806-24.456651-37.418677s11.005493-37.418677 24.456651-37.418677 24.456652 16.752806 24.456652 37.418677-11.005493 37.418677-24.456652 37.418677z m166.305231-128.275138c-36.684977 0-67.255792 40.842608-67.255792 91.223311s30.081681 91.22331 67.255792 91.22331 67.255792-40.842608 67.255791-91.22331-30.081681-91.22331-67.255791-91.223311z m11.372343 94.647242a1.834249 1.834249 0 0 1-1.834249 1.834249 1.711966 1.711966 0 0 1-1.711966-1.345116 24.456652 24.456652 0 0 0-20.66587-17.853356A24.456652 24.456652 0 0 0 568.68779 248.357296a1.711966 1.711966 0 0 1-1.589682 1.10055 1.834249 1.834249 0 0 1-1.834249-1.834249V244.566515c0-20.665871 11.005493-37.418677 24.456651-37.418676s24.456652 16.752806 24.456652 37.418676v3.179365z" fill="#FFFFFF" p-id="12034"></path><path d="M247.938805 540.491999c-6.114163 30.570814-19.076188 167.894913-12.962025 198.465727s31.793647 25.434918 68.723191 25.801768 77.527585 10.14951 78.139001-34.728446 0.7337-133.288751 10.88321-165.93838-144.783377-23.600669-144.783377-23.600669z" fill="#FF3A2F" p-id="12035"></path><path d="M239.86811 606.035825l143.560545 46.467638a416.863626 416.863626 0 0 1 9.415811-88.166229c10.14951-32.64963-144.783377-23.845235-144.783378-23.845235-2.201099 11.127776-5.380463 36.684977-8.192978 65.543826z" fill="#DD2C00" p-id="12036"></path><path d="M512.559775 462.230714c111.889181 0 202.867925-40.720325 202.867924-65.910676 0-19.076188-90.734177-38.763793-202.623358-38.763792s-202.623358 17.731072-202.623358 38.763792c0 23.845235 90.734177 65.910676 202.623358 65.910676z" fill="#FFC716" p-id="12037"></path><path d="M514.63859 486.809649s128.519704 1.345116 231.115357-42.187724 101.617387-48.913303 112.867447-48.913303 24.456652 16.14139 30.081682 45.244805 12.228326 52.092668-12.228326 66.399809-180.979221 106.508717-357.923096 106.508718h-8.804394c-176.943874 0-333.955577-92.32386-357.923095-106.508718s-17.364223-36.684977-12.228326-66.399809 18.831622-45.244805 30.081681-45.244805 10.14951 4.89133 112.867447 48.913303 231.115357 42.187724 231.115357 42.187724z" fill="#FF3A2F" p-id="12038"></path></svg>