<svg t="1561449321859" class="icon" viewBox="0 0 1024 1024" version="1.1" xmlns="http://www.w3.org/2000/svg" p-id="18132" width="30" height="30"><path d="M177.83 1024c-79.22 0-143.679-64.313-143.679-143.36s64.459-143.36 143.68-143.36c79.22 0 143.678 64.313 143.678 143.36S257.051 1024 177.83 1024z m0-233.538c-49.896 0-90.484 40.454-90.484 90.165s40.588 90.178 90.484 90.178c49.884 0 90.485-40.454 90.485-90.165s-40.588-90.178-90.485-90.178zM841.302 1024c-79.233 0-143.692-64.313-143.692-143.36s64.459-143.36 143.692-143.36c79.22 0 143.68 64.313 143.68 143.36S920.522 1024 841.302 1024z m0-233.538c-49.896 0-90.497 40.454-90.497 90.165s40.6 90.178 90.497 90.178 90.485-40.454 90.485-90.165-40.588-90.178-90.485-90.178zM515.537 792.177c-174.691 0-189.2-126.564-189.32-127.827-1.436-14.629 9.243-27.635 23.858-29.084 14.469-1.476 27.475 9.096 29.058 23.578 0.492 3.883 11.942 80.125 136.404 80.125 124.995 0 136.02-76.906 136.432-80.178a26.731 26.731 0 0 1 29.363-23.326c14.47 1.61 24.962 14.39 23.54 28.872-0.147 1.303-14.656 127.84-189.335 127.84zM785.115 436.955c-13.298 0-24.775-9.96-26.37-23.485-3.046-25.188-18.406-80.364-44.286-80.364-25.693 0-39.47 54.75-41.824 79.739-1.383 14.628-14.163 25.294-28.978 23.99-14.628-1.369-25.36-14.349-23.99-28.964 4.468-47.53 29.456-127.96 94.78-127.96 64.897 0 91.587 80.058 97.12 127.348 1.715 14.59-8.724 27.795-23.326 29.51-1.051 0.133-2.088 0.186-3.126 0.186zM424.122 436.955c-13.299 0-24.775-9.947-26.371-23.458-3.046-25.188-18.406-80.378-44.285-80.378-25.68 0-39.47 54.75-41.824 79.74-1.383 14.628-14.35 25.36-28.965 23.99-14.628-1.37-25.374-14.35-23.99-28.965 4.454-47.53 29.443-127.96 94.78-127.96 64.884 0 91.574 80.059 97.106 127.349 1.703 14.588-8.737 27.794-23.326 29.51-1.05 0.12-2.1 0.172-3.125 0.172z" p-id="18133" fill="#fc4c58"></path><path d="M697.61 880.64c0-6.09 0.505-12.049 1.237-17.927-56.972 28.632-121.245 44.857-189.294 44.857-68.036 0-132.309-16.225-189.28-44.857 0.731 5.892 1.236 11.85 1.236 17.927 0 13.498-1.994 26.504-5.465 38.885 59.166 26.412 124.622 41.226 193.522 41.226 68.9 0 134.357-14.814 193.523-41.226-3.484-12.38-5.479-25.4-5.479-38.885zM170.649 737.32c-52.304-70.098-83.303-156.885-83.303-250.774 0-232.155 189.4-421.023 422.22-421.023 232.82 0 422.22 188.868 422.22 421.023 0 93.89-30.998 180.676-83.302 250.774 19.748 0.984 38.406 5.905 55.256 14.07 51.266-75.67 81.228-166.832 81.228-264.844 0-261.479-213.271-474.218-475.415-474.218S34.151 225.054 34.151 486.533c0 98.011 29.962 189.174 81.229 264.844 16.862-8.152 35.52-13.086 55.269-14.057z" p-id="18134" fill="#fc4c58"></path></svg>