<svg t="1561340290984" class="icon" viewBox="0 0 1024 1024" version="1.1" xmlns="http://www.w3.org/2000/svg" p-id="3183" width="30" height="30"><path d="M511.85664 0.37888C229.30432 0.37888 0 229.2736 0 511.55968s229.30432 511.1808 511.85664 511.1808c282.5728 0 511.77472-228.89472 511.77472-511.1808S794.42944 0.37888 511.85664 0.37888z m-90.39872 631.6032c-27.3408 0-49.31584-5.56032-76.6976-10.9568l-76.55424 38.3488 21.88288-65.81248c-54.79424-38.2464-87.62368-87.59296-87.62368-147.63008 0-104.05888 98.60096-185.99936 218.9824-185.99936 107.65312 0 201.97376 65.44384 220.93824 153.56928a189.67552 189.67552 0 0 0-21.08416-1.28c-104.02816 0-186.1632 77.5168-186.1632 173.07648 0 15.872 2.47808 31.20128 6.7584 45.83424a257.21344 257.21344 0 0 1-20.44928 0.86016l0.01024-0.01024z m322.99008 76.61568l16.4864 54.6816-60.04736-32.8704c-21.9136 5.48864-43.90912 10.97728-65.72032 10.97728-104.192 0-186.23488-71.1168-186.23488-158.69952 0-87.4496 82.04288-158.70976 186.23488-158.70976 98.3552 0 185.99936 71.26016 185.99936 158.70976 0 49.31584-32.74752 93.00992-76.71808 125.91104z" fill="#46BB36" p-id="3184"></path><path d="M317.44 378.88a30.72 30.72 0 1 0 61.44 0 30.72 30.72 0 0 0-61.44 0zM552.96 537.6a25.6 25.6 0 1 0 51.20512-0.00512A25.6 25.6 0 0 0 552.96 537.6zM471.04 378.88a30.72 30.72 0 0 0 61.44 0.06144v-0.05632a30.72 30.72 0 0 0-30.72-30.72A30.70976 30.70976 0 0 0 471.04 378.88zM675.84 537.6a25.6 25.6 0 1 0 51.20512-0.00512A25.6 25.6 0 0 0 675.84 537.6z" fill="#46BB36" p-id="3185"></path></svg>