<svg t="1561340380271" class="icon" viewBox="0 0 1024 1024" version="1.1" xmlns="http://www.w3.org/2000/svg" p-id="3959" width="30" height="30"><path d="M512 5.818182C232.727273 5.818182 5.818182 232.727273 5.818182 512S232.727273 1018.181818 512 1018.181818 1018.181818 791.272727 1018.181818 512 791.272727 5.818182 512 5.818182z m228.072727 658.618182c-1.163636 1.163636-2.327273 1.163636-3.490909 2.327272-13.963636-3.490909-30.254545-16.290909-37.236363-26.763636-3.490909-3.490909-4.654545-9.309091-10.472728-11.636364 0 20.945455-12.8 40.727273-22.109091 54.690909-3.490909 4.654545-13.963636 12.8-13.963636 17.454546 3.490909 2.327273 8.145455 3.490909 12.8 4.654545 10.472727 4.654545 25.6 12.8 31.418182 22.109091 2.327273 3.490909 5.818182 6.981818 6.981818 10.472728 16.290909 38.4-36.072727 47.709091-62.836364 53.527272-26.763636 5.818182-76.8-10.472727-90.763636-18.618182-8.145455-5.818182-16.290909-18.618182-29.090909-18.618181-3.490909 2.327273-13.963636 1.163636-19.781818 1.163636-16.290909 32.581818-101.236364 47.709091-146.618182 30.254545-13.963636-4.654545-43.054545-17.454545-37.236364-39.563636 4.654545-18.618182 19.781818-29.090909 34.909091-36.072727 5.818182-3.490909 18.618182-4.654545 22.109091-10.472727-12.8-9.309091-24.436364-27.927273-30.254545-43.054546-3.490909-8.145455-4.654545-25.6-9.309091-31.418182-8.145455 11.636364-31.418182 36.072727-51.2 32.581818-3.490909-4.654545-6.981818-9.309091-9.309091-15.127272-4.654545-15.127273-2.327273-39.563636 2.327273-53.527273 8.145455-29.090909 16.290909-50.036364 31.418181-70.981818 4.654545-6.981818 11.636364-11.636364 16.290909-18.618182-9.309091-9.309091-6.981818-37.236364-1.163636-48.872727 3.490909-8.145455 9.309091-6.981818 10.472727-19.781818-2.327273-3.490909 0-8.145455-1.163636-12.8-4.654545-20.945455 3.490909-46.545455 9.309091-62.836364 19.781818-52.363636 53.527273-89.6 103.563636-110.545455 11.636364-4.654545 25.6-8.145455 38.4-10.472727 5.818182-1.163636 11.636364 0 16.290909-2.327273 117.527273-1.163636 176.872727 60.509091 198.981819 154.763637 3.490909 15.127273 0 34.909091 0 50.036363 26.763636 5.818182 32.581818 59.345455 10.472727 74.472728v1.163636c8.145455 13.963636 18.618182 27.927273 25.6 43.054545 6.981818 16.290909 9.309091 34.909091 13.963636 54.69091 4.654545 15.127273-2.327273 50.036364-9.309091 54.690909z" fill="#18ACFC" p-id="3960"></path></svg>