<svg t="1561341859126" class="icon" viewBox="0 0 1024 1024" version="1.1" xmlns="http://www.w3.org/2000/svg" p-id="13784" width="12" height="12"><path d="M689.035017 569.570908a309.977521 309.977521 0 0 0 133.50517-256.012788c0-172.78945-139.899096-313.609271-311.614367-313.609271-171.612968 0-309.414856 140.819821-309.414855 311.460912a309.977521 309.977521 0 0 0 133.50517 256.012788 490.644288 490.644288 0 0 0-309.414856 456.628602H112.507518c0-204.81023 154.681852-375.502473 351.819371-399.032119 2.097208 0 55.090064-4.245567 99.64294 0h4.296718c192.840801 27.775214 341.231031 194.221889 341.23103 396.832609h89.003447c-2.097208-204.81023-129.361906-381.845247-309.466007-452.280733z m-178.109197-23.478496c-129.208452 0-233.148109-104.553474-233.148109-234.733803 0-130.078026 103.888506-234.682651 233.148109-234.682651 129.310755 0 233.199261 104.553474 233.199261 234.682651 0 130.23148-103.888506 234.733803-233.199261 234.733803z m0 0" p-id="13785" fill="#bfbfbf"></path></svg>