<svg t="1561424264409" class="icon" viewBox="0 0 1024 1024" version="1.1" xmlns="http://www.w3.org/2000/svg" p-id="2015" width="30" height="30"><path d="M198.716 992c-74.269 0-134.699-60.293-134.699-134.4s60.43-134.4 134.699-134.4c74.269 0 134.699 60.293 134.699 134.4s-60.43 134.4-134.699 134.4zM198.716 773.058c-46.778 0-84.829 37.927-84.829 84.53s38.051 84.542 84.829 84.542c46.765 0 84.829-37.927 84.829-84.53s-38.051-84.542-84.829-84.542z" p-id="2016" fill="#2f9688"></path><path d="M820.721 992c-74.282 0-134.711-60.293-134.711-134.4s60.43-134.4 134.711-134.4c74.269 0 134.699 60.293 134.699 134.4s-60.43 134.4-134.699 134.4zM820.721 773.058c-46.778 0-84.842 37.927-84.842 84.53s38.063 84.542 84.842 84.542 84.829-37.927 84.829-84.53-38.051-84.542-84.829-84.542z" p-id="2017" fill="#2f9688"></path><path d="M515.316 774.666c-163.774 0-177.376-118.654-177.487-119.838-1.346-13.715 8.665-25.908 22.367-27.266 13.565-1.384 25.758 8.528 27.242 22.105 0.461 3.64 11.196 75.117 127.88 75.117 117.182 0 127.518-72.099 127.904-75.167 1.683-13.539 13.814-23.289 27.529-21.868 13.565 1.508 23.402 13.49 22.068 27.067-0.137 1.222-13.739 119.85-177.501 119.85z" p-id="2018" fill="#2f9688"></path><path d="M768.045 441.645c-12.468 0-23.227-9.338-24.723-22.018-2.855-23.614-17.255-75.341-41.517-75.341-24.087 0-37.004 51.329-39.21 74.755-1.297 13.715-13.278 23.713-27.167 22.492-13.715-1.284-23.776-13.452-22.492-27.155 4.189-44.559 27.616-119.962 88.856-119.962 60.842 0 85.864 75.054 91.050 119.389 1.609 13.677-8.179 26.057-21.868 27.666-0.985 0.125-1.958 0.174-2.93 0.174z" p-id="2019" fill="#2f9688"></path><path d="M429.614 441.645c-12.468 0-23.227-9.325-24.723-21.993v0c-2.855-23.614-17.255-75.353-41.517-75.353-24.075 0-37.004 51.329-39.21 74.755-1.297 13.715-13.452 23.776-27.155 22.492-13.715-1.284-23.788-13.452-22.492-27.155 4.177-44.559 27.603-119.962 88.856-119.962 60.829 0 85.852 75.054 91.038 119.389 1.596 13.677-8.191 26.057-21.868 27.666-0.985 0.112-1.97 0.162-2.93 0.162z" p-id="2020" fill="#2f9688"></path><path d="M686.009 857.6c0-5.71 0.473-11.296 1.16-16.807-53.411 26.842-113.666 42.053-177.463 42.053-63.784 0-124.040-15.21-177.45-42.053 0.685 5.523 1.16 11.108 1.16 16.807 0 12.654-1.87 24.848-5.124 36.455 55.468 24.76 116.833 38.649 181.428 38.649 64.595 0 125.96-13.889 181.428-38.649-3.266-11.607-5.137-23.813-5.137-36.455z" p-id="2021" fill="#2f9688"></path><path d="M191.983 723.237c-49.035-65.716-78.097-147.080-78.097-235.101 0-217.645 177.562-394.71 395.831-394.71 218.269 0 395.831 177.064 395.831 394.71 0 88.021-29.062 169.384-78.097 235.101 18.515 0.923 36.007 5.536 51.803 13.191 48.062-70.941 76.151-156.405 76.151-248.291 0-245.137-199.942-444.579-445.702-444.579s-445.689 199.431-445.689 444.567c0 91.885 28.089 177.351 76.151 248.291 15.809-7.642 33.301-12.268 51.815-13.178z" p-id="2022" fill="#2f9688"></path></svg>