<svg t="1561362936914" class="icon" viewBox="0 0 1024 1024" version="1.1" xmlns="http://www.w3.org/2000/svg" p-id="16170" width="14" height="14"><path d="M729.088 454.656 294.912 454.656 294.912 319.488c0-117.76 97.28-212.992 217.088-212.992 120.832 0 217.088 95.232 217.088 212.992L729.088 454.656zM566.272 759.808l0 104.448c0 29.696-24.576 53.248-54.272 53.248s-54.272-23.552-54.272-53.248L457.728 759.808c-32.768-18.432-54.272-52.224-54.272-91.136 0-58.368 49.152-106.496 108.544-106.496s108.544 48.128 108.544 106.496C620.544 707.584 599.04 741.376 566.272 759.808zM837.632 454.656 837.632 319.488C837.632 143.36 692.224 0 512 0S186.368 143.36 186.368 319.488l0 135.168L95.232 454.656c-29.696 0-54.272 23.552-54.272 53.248l0 461.824c0 29.696 24.576 53.248 54.272 53.248l833.536 0c29.696 0 54.272-23.552 54.272-53.248L983.04 508.928c0-29.696-24.576-53.248-54.272-53.248L837.632 455.68z" p-id="16171" fill="#2f9688"></path></svg>