<svg t="1561363048505" class="icon" viewBox="0 0 1024 1024" version="1.1" xmlns="http://www.w3.org/2000/svg" p-id="18961" width="14" height="14"><path d="M256 128v512h512V128H256z m160 672c0 53.12 42.88 96 96 96s96-42.88 96-96-42.88-96-96-96-96 42.88-96 96z m64 0c0-17.6 14.4-32 32-32s32 14.4 32 32-14.4 32-32 32-32-14.4-32-32zM256 0C185.28 0 128 57.28 128 128v768c0 70.72 57.28 128 128 128h512c70.72 0 128-57.28 128-128V128C896 57.28 838.72 0 768 0H256z m32 64h448c53.12 0 96 42.88 96 96v704c0 53.12-42.88 96-96 96H288c-53.12 0-96-42.88-96-96V160c0-53.12 42.88-96 96-96z" p-id="18962" fill="#bfbfbf"></path></svg>