<?xml version="1.0" encoding="utf-8"?>
<svg version="1.1" xmlns:xlink="http://www.w3.org/1999/xlink" width="19px" height="14px" xmlns="http://www.w3.org/2000/svg">
  <g transform="matrix(1 0 0 1 -546 -167 )">
    <path d="M 1.35714285714289 7  C 2.53757440476193 8.79166666666669  4.04668898809518 10.09375  5.88448660714289 10.90625  L 6.71149553571422 9.4375  C 6.09654017857133 9  5.61588541666652 8.44791666666669  5.26953125 7.78125  C 4.92317708333348 7.11458333333337  4.75 6.40972222222223  4.75 5.66666666666663  C 4.75 4.82638888888891  4.96558779761904 4.04513888888891  5.39676339285711 3.32291666666669  C 3.77808779761904 4.13541666666663  2.43154761904748 5.36111111111109  1.35714285714289 7  Z M 9.86049107142867 3.35416666666663  C 9.95944940476193 3.25694444444446  10.0089285714287 3.13888888888891  10.0089285714287 3  C 10.0089285714287 2.86111111111109  9.95944940476193 2.7430555555556  9.86049107142867 2.64583333333337  C 9.76153273809519 2.54861111111109  9.64136904761904 2.5  9.5 2.5  C 8.61644345238096 2.5  7.85835193452385 2.81076388888891  7.22572544642867 3.43229166666669  C 6.59309895833348 4.05381944444446  6.27678571428578 4.79861111111109  6.27678571428578 5.66666666666663  C 6.27678571428578 5.8055555555556  6.32626488095252 5.92361111111109  6.42522321428578 6.02083333333337  C 6.52418154761904 6.11805555555554  6.64434523809518 6.16666666666669  6.78571428571422 6.16666666666669  C 6.92708333333348 6.16666666666669  7.0472470238094 6.11805555555554  7.14620535714289 6.02083333333337  C 7.24516369047615 5.92361111111109  7.29464285714289 5.8055555555556  7.29464285714289 5.66666666666663  C 7.29464285714289 5.06944444444446  7.51023065476193 4.55902777777783  7.94140625 4.13541666666663  C 8.37258184523807 3.71180555555554  8.89211309523807 3.5  9.5 3.5  C 9.64136904761904 3.5  9.76153273809519 3.45138888888891  9.86049107142867 3.35416666666663  Z M 13.6880580357142 0.729166666666629  C 13.8011532738094 0.798611111111086  13.8577008928571 0.892361111111086  13.8577008928571 1.01041666666669  C 13.8577008928571 1.05902777777783  13.8541666666665 1.09027777777771  13.8470982142858 1.10416666666669  C 13.1049107142858 2.40972222222229  11.9916294642858 4.375  10.5072544642858 7  C 9.02287946428578 9.625  7.90606398809518 11.59375  7.15680803571422 12.90625  L 6.63727678571422 13.8333333333334  C 6.56659226190482 13.9444444444445  6.46763392857133 14  6.34040178571422 14  C 6.25558035714289 14  5.78199404761904 13.7569444444445  4.91964285714289 13.2708333333334  C 4.80654761904748 13.2013888888889  4.75 13.1041666666666  4.75 12.9791666666666  C 4.75 12.8958333333333  4.90550595238096 12.59375  5.21651785714289 12.0729166666667  C 4.20572916666652 11.6215277777778  3.27446056547615 11.0208333333333  2.42271205357133 10.2708333333333  C 1.57096354166652 9.52083333333337  0.834077380952522 8.67013888888886  0.212053571428669 7.71875  C 0.0706845238094047 7.50347222222223  0 7.26388888888886  0 7  C 0 6.73611111111114  0.0706845238094047 6.49652777777777  0.212053571428669 6.28125  C 1.29352678571422 4.64930555555554  2.63653273809518 3.36111111111114  4.24107142857133 2.41666666666669  C 5.84561011904748 1.47222222222217  7.59858630952385 1  9.5 1  C 10.1290922619048 1  10.7652529761906 1.05902777777783  11.4084821428571 1.17708333333331  L 11.9810267857142 0.166666666666629  C 12.0517113095239 0.0555555555555429  12.1506696428571 0  12.2779017857142 0  C 12.313244047619 0  12.3768601190475 0.0208333333333712  12.46875 0.0625  C 12.5606398809525 0.104166666666629  12.6702008928571 0.157986111111086  12.7974330357142 0.223958333333371  C 12.9246651785713 0.289930555555543  13.0412946428571 0.354166666666686  13.1473214285713 0.416666666666629  C 13.2533482142858 0.479166666666686  13.3646763392858 0.543402777777715  13.4813058035713 0.609375  C 13.5979352678571 0.675347222222172  13.6668526785713 0.715277777777828  13.6880580357142 0.729166666666629  Z M 14.1651785714287 4.79166666666663  C 14.2217261904761 5.10416666666663  14.25 5.39583333333337  14.25 5.66666666666663  C 14.25 6.63194444444446  13.9707961309525 7.51215277777783  13.4123883928571 8.30729166666663  C 12.8539806547619 9.10243055555554  12.1153273809525 9.67361111111109  11.1964285714287 10.0208333333333  L 14.1651785714287 4.79166666666663  Z M 18.7879464285713 6.28125  C 18.9293154761906 6.51736111111114  19 6.75694444444446  19 7  C 19 7.24305555555554  18.9293154761906 7.48263888888886  18.7879464285713 7.71875  C 18.5122767857142 8.16319444444446  18.1270461309525 8.66666666666669  17.6322544642858 9.22916666666669  C 16.5719866071429 10.4236111111111  15.3438430059525 11.3506944444445  13.9478236607142 12.0104166666666  C 12.5518043154761 12.6701388888889  11.0691964285713 13  9.5 13  L 10.2845982142858 11.625  C 11.7831101190475 11.5  13.1702938988094 11.0243055555555  14.4461495535713 10.1979166666667  C 15.7220052083335 9.37152777777783  16.7875744047619 8.30555555555554  17.6428571428571 7  C 16.8299851190475 5.75694444444446  15.8333333333335 4.73611111111109  14.6529017857142 3.9375  L 15.3208705357142 2.77083333333337  C 15.9923735119048 3.21527777777777  16.6373697916665 3.74652777777777  17.255859375 4.36458333333331  C 17.8743489583335 4.98263888888891  18.3850446428571 5.62152777777777  18.7879464285713 6.28125  Z " fill-rule="nonzero" fill="#2f9688" stroke="none" transform="matrix(1 0 0 1 546 167 )" />
  </g>
</svg>