<?xml version="1.0" encoding="utf-8"?>
<svg version="1.1" xmlns:xlink="http://www.w3.org/1999/xlink" width="19px" height="12px" xmlns="http://www.w3.org/2000/svg">
  <g transform="matrix(1 0 0 1 -546 -168 )">
    <path d="M 14.1068638392858 9.40104166666663  C 15.5240885416665 8.55729166666663  16.7027529761906 7.42361111111109  17.6428571428571 6  C 16.5684523809525 4.36111111111114  15.221912202381 3.13541666666669  13.6032366071429 2.32291666666663  C 14.034412202381 3.04513888888886  14.25 3.82638888888891  14.25 4.66666666666663  C 14.25 5.95138888888886  13.7852492559525 7.05034722222223  12.8557477678571 7.96354166666669  C 11.9262462797619 8.87673611111109  10.8076636904761 9.33333333333331  9.5 9.33333333333331  C 8.19233630952385 9.33333333333331  7.07375372023807 8.87673611111109  6.14425223214289 7.96354166666669  C 5.21475074404748 7.05034722222223  4.75 5.95138888888886  4.75 4.66666666666663  C 4.75 3.82638888888891  4.96558779761904 3.04513888888886  5.39676339285711 2.32291666666663  C 3.77808779761904 3.13541666666669  2.43154761904748 4.36111111111114  1.35714285714289 6  C 2.2972470238094 7.42361111111109  3.47591145833348 8.55729166666663  4.89313616071422 9.40104166666663  C 6.31036086309518 10.2447916666666  7.84598214285711 10.6666666666666  9.5 10.6666666666666  C 11.1540178571429 10.6666666666666  12.6896391369048 10.2447916666666  14.1068638392858 9.40104166666663  Z M 9.86049107142867 2.35416666666669  C 9.95944940476193 2.25694444444446  10.0089285714287 2.13888888888891  10.0089285714287 2.00000000000006  C 10.0089285714287 1.86111111111109  9.95944940476193 1.74305555555554  9.86049107142867 1.64583333333331  C 9.76153273809519 1.54861111111114  9.64136904761904 1.5  9.5 1.5  C 8.61644345238096 1.5  7.85835193452385 1.81076388888891  7.22572544642867 2.43229166666669  C 6.59309895833348 3.05381944444446  6.27678571428578 3.79861111111114  6.27678571428578 4.66666666666663  C 6.27678571428578 4.80555555555554  6.32626488095252 4.92361111111114  6.42522321428578 5.02083333333331  C 6.52418154761904 5.11805555555554  6.64434523809518 5.16666666666669  6.78571428571422 5.16666666666669  C 6.92708333333348 5.16666666666669  7.0472470238094 5.11805555555554  7.14620535714289 5.02083333333331  C 7.24516369047615 4.92361111111114  7.29464285714289 4.80555555555554  7.29464285714289 4.66666666666663  C 7.29464285714289 4.06944444444446  7.51023065476193 3.55902777777771  7.94140625 3.13541666666669  C 8.37258184523807 2.71180555555554  8.89211309523807 2.49999999999994  9.5 2.49999999999994  C 9.64136904761904 2.49999999999994  9.76153273809519 2.45138888888891  9.86049107142867 2.35416666666669  Z M 18.7879464285713 5.28125000000006  C 18.9293154761906 5.52430555555554  19 5.76388888888886  19 6  C 19 6.23611111111114  18.9293154761906 6.47569444444446  18.7879464285713 6.71874999999994  C 17.7983630952381 8.31597222222223  16.4677269345239 9.59548611111109  14.7960379464287 10.5572916666667  C 13.1243489583335 11.5190972222222  11.3590029761906 12  9.5 12  C 7.6409970238094 12  5.87565104166652 11.5173611111111  4.20396205357133 10.5520833333333  C 2.53227306547615 9.58680555555554  1.20163690476193 8.30902777777777  0.212053571428669 6.71874999999994  C 0.0706845238094047 6.47569444444446  0 6.23611111111114  0 6  C 0 5.76388888888886  0.0706845238094047 5.52430555555554  0.212053571428669 5.28125000000006  C 1.20163690476193 3.69097222222223  2.53227306547615 2.41319444444446  4.20396205357133 1.44791666666669  C 5.87565104166652 0.482638888888914  7.6409970238094 0  9.5 0  C 11.3590029761906 0  13.1243489583335 0.482638888888914  14.7960379464287 1.44791666666669  C 16.4677269345239 2.41319444444446  17.7983630952381 3.69097222222223  18.7879464285713 5.28125000000006  Z " fill-rule="nonzero" fill="#2f9688" stroke="none" transform="matrix(1 0 0 1 546 168 )" />
  </g>
</svg>