<svg t="1561338972587" class="icon" viewBox="0 0 1024 1024" version="1.1" xmlns="http://www.w3.org/2000/svg" p-id="2000" width="14" height="14"><path d="M517.851429 1009.371429C248.685714 1009.371429 29.257143 789.942857 29.257143 517.851429S248.685714 29.257143 517.851429 29.257143s488.594286 219.428571 488.594285 488.594286S789.942857 1009.371429 517.851429 1009.371429z m0-933.302858C275.017143 76.068571 76.068571 275.017143 76.068571 517.851429s198.948571 441.782857 441.782858 441.782857S959.634286 760.685714 959.634286 517.851429 763.611429 76.068571 517.851429 76.068571z" p-id="2001" fill="#2f9688"></path><path d="M517.851429 1024C239.908571 1024 14.628571 795.794286 14.628571 517.851429S239.908571 14.628571 517.851429 14.628571 1024 239.908571 1024 517.851429 795.794286 1024 517.851429 1024z m0-980.114286c-263.314286 0-473.965714 213.577143-473.965715 473.965715 0 263.314286 213.577143 473.965714 473.965715 473.965714 263.314286 0 473.965714-213.577143 473.965714-473.965714 2.925714-260.388571-210.651429-473.965714-473.965714-473.965715z m0 933.302857c-251.611429 0-456.411429-204.8-456.411429-456.411428s204.8-456.411429 456.411429-456.411429 456.411429 204.8 456.411428 456.411429c2.925714 251.611429-201.874286 456.411429-456.411428 456.411428z m0-886.491428c-234.057143 0-427.154286 193.097143-427.154286 427.154286 0 236.982857 193.097143 427.154286 427.154286 427.154285 236.982857 0 427.154286-193.097143 427.154285-427.154285 2.925714-234.057143-190.171429-427.154286-427.154285-427.154286z" p-id="2002" fill="#2f9688"></path><path d="M555.885714 517.851429l190.171429-190.171429c8.777143-8.777143 8.777143-26.331429 0-35.108571h-2.925714c-8.777143-8.777143-26.331429-8.777143-35.108572 0l-190.171428 190.171428-187.245715-190.171428c-11.702857-8.777143-26.331429-8.777143-35.108571 0l-2.925714 2.925714c-8.777143 8.777143-8.777143 26.331429 0 35.108571l190.171428 187.245715-190.171428 190.171428c-8.777143 8.777143-8.777143 26.331429 0 35.108572l2.925714 2.925714c8.777143 8.777143 26.331429 8.777143 35.108571 0l190.171429-190.171429 190.171428 190.171429c8.777143 8.777143 26.331429 8.777143 35.108572 0l2.925714-2.925714c8.777143-8.777143 8.777143-26.331429 0-35.108572L555.885714 517.851429z" p-id="2003" fill="#2f9688"></path></svg>