<svg t="1561342103171" class="icon" viewBox="0 0 1024 1024" version="1.1" xmlns="http://www.w3.org/2000/svg" p-id="16062" width="14" height="14"><path d="M936.3 156.9l-47.6-0.8c-0.9 0-93.1-2.1-187.3-39.7-89.9-35.9-149.7-76.2-160.9-84L511.9 12l-28.7 20.5c-11.1 7.7-70.8 48-160.7 83.9-94 37.5-186.3 39.7-187.3 39.7l-47.7 0.8v420.7c0 211.2 276 434.4 424.5 434.4s424.6-223.2 424.6-434.4l-0.3-420.7z m-96.8 420.7c0 158.1-232.5 339-327.5 339-95.1 0-327.6-180.9-327.6-339V248c43.7-5 107.9-16.6 174.6-43.2 71.2-28.5 125.3-59.5 153-76.6 32.9 20.4 85.2 49.5 153 76.6 66.6 26.6 130.7 38.2 174.5 43.2v329.6z m-473.6-64.9l-62.7 72.6 187 156.7 275.1-311.7 4.1-4.7-73.3-62.5-216.3 245.1-113.9-95.5z" p-id="16063" fill="#2f9688"></path></svg>