<svg t="1575615940101" class="icon" viewBox="0 0 1024 1024" version="1.1" xmlns="http://www.w3.org/2000/svg" p-id="13488" width="200" height="200"><path d="M78.964186 984.875654c0 21.51839-18.157253 39.115454-39.675644 39.115454-21.242742 0-39.124346-17.597064-39.124346-39.399995 0-71.53531 29.34326-125.189016 69.863634-164.597902 56.445761-53.929354 135.245751-77.679611 182.194966-81.876587 9.496546-1.120379 17.881605-4.748273 23.750257-10.332384 3.636786-3.636786 5.868652-8.385059 6.989031-12.857683-36.883588-30.463639-54.213895-72.38004-68.183065-107.8676-7.26468-17.321415-13.40898-31.850775-16.770118-36.04775l-0.835838-0.275649-0.275649-0.275649h-0.275649v-0.28454c-16.485577-15.080657-39.684536-43.588078-51.697488-76.007935-12.297493-32.135315-15.37409-67.622876 3.076596-100.033839-9.781087-29.6278-14.8139-62.038764-14.8139-95.570108-0.56019-42.75224 6.144301-86.073562 19.562173-125.749205l1.671677-3.352245C173.413914 113.852114 205.83377 73.056091 247.189983 45.384508c44.148268-30.179098 98.922352-43.872619 160.400927-45.268647 22.914418-0.275649 54.213895-0.835838 84.668642 5.032814 34.927371 6.144301 67.907416 19.562173 88.020887 47.785054 41.356212-3.636786 77.403962 19.277632 105.626842 52.808975 34.651722 40.235833 59.522358 98.922352 64.83082 133.574075 4.472624 25.706474 4.472624 52.533327 0.56019 81.040748-2.792056 22.07858-7.824869 45.828836-14.538252 69.303444 21.242742 33.531343 18.441794 70.975121 6.144301 103.955166-12.297493 32.419856-35.211912 61.478575-51.982029 76.283583l-0.560189 0.560189-0.56019 0.56019v0.275649c-4.196975 3.912435-10.341276 18.717443-17.321415 35.763209-13.693521 35.211912-30.18799 76.292475-66.226848 106.187032 0.835838 5.317354 3.627894 10.341276 7.549221 14.538251 5.584111 5.584111 14.529359 9.212005 23.750256 10.332384 46.664675 4.196975 125.464665 27.947232 181.919318 81.876587 40.235833 39.124346 69.854742 93.062592 69.854742 164.873551 0 21.51839-17.890496 39.115454-39.115455 39.115454-21.794039 0-39.124346-17.597064-39.124346-39.399995 0-46.949215-19.553281-81.876586-46.113377-107.591952-41.640753-39.960184-99.758191-57.841789-134.409913-60.358195-27.947232-2.792056-53.644814-14.529359-72.655689-33.531343-21.23385-20.67366-51.412948-98.646704-12.012953-123.51734 27.653799-16.485577 42.192051-51.973137 53.644814-81.876586 10.901466-26.542312 19.837822-49.45673 37.728319-65.666658v0.560189l0.275648-0.560189c9.781087-8.669599 24.310446-26.266663 31.575126-45.828836 5.593003-14.529359 6.713382-29.058719-2.783164-39.124347h0.275649c-10.341276-11.452763-13.96917-32.135315-9.220897-46.389025 7.824869-24.870635 13.40898-48.060702 15.925387-70.414932 2.516407-20.958201 3.076596-40.520374-0.275648-59.798006-3.352245-23.474608-21.242742-64.279522-46.664675-93.898431-13.417872-15.934279-27.947232-27.387042-40.235833-25.155176-13.693521 1.956217-27.111393 0-39.408887-5.584111a73.358149 73.358149 0 0 1-27.387042-23.474608l-2.489732-2.774272c-5.868652-8.936356-20.958201-14.529359-38.564156-17.605955-23.190067-4.188083-49.465622-3.627894-69.027796-3.076597-46.664675 0.56019-87.185049 10.056735-118.760174 31.859667-27.387042 18.157253-48.620892 45.828836-62.314413 84.668642l-1.120379 3.076596c-10.341276 31.023828-16.209928 65.391009-15.649738 98.922352 0.56019 29.903449 5.308462 58.686519 15.089549 82.721317a35.923263 35.923263 0 0 1 4.196975 25.706474c-4.196975 25.706474-24.870635 26.826853-12.582034 60.358195 7.26468 18.441794 21.242742 36.04775 31.023828 45.268647l1.111487 1.671677h0.56019c17.045766 15.934279 26.266663 38.555265 36.607939 64.546279 12.297493 29.903449 26.826853 65.951199 54.213895 82.996965 12.297493 6.144301 20.682552 19.001984 20.682552 34.651722 0 33.531343-5.584111 62.590062-30.739287 87.736347-18.441794 19.010875-44.708457 30.739287-73.206987 33.531343-34.376073 2.516407-92.217862 20.398011-133.574075 60.358195-26.835745 25.733149-45.837728 60.651628-45.837728 107.885385z" p-id="13489" fill="#1296db"></path></svg>