<?xml version="1.0" encoding="utf-8"?>
<svg version="1.1" xmlns:xlink="http://www.w3.org/1999/xlink" width="12px" height="12px" viewBox="305 242  12 12" xmlns="http://www.w3.org/2000/svg">
  <path d="M 311 242  C 314.36 242  317 244.64  317 248  C 317 251.36  314.36 254  311 254  C 307.64 254  305 251.36  305 248  C 305 244.64  307.64 242  311 242  Z " fill-rule="nonzero" fill="#ffffff" stroke="none" />
  <path d="M 311 242.5  C 314.08 242.5  316.5 244.92  316.5 248  C 316.5 251.08  314.08 253.5  311 253.5  C 307.92 253.5  305.5 251.08  305.5 248  C 305.5 244.92  307.92 242.5  311 242.5  Z " stroke-width="1" stroke="#797979" fill="none" />
  <path d="M 311 251  C 309.32 251  308 249.68  308 248  C 308 246.32  309.32 245  311 245  C 312.68 245  314 246.32  314 248  C 314 249.68  312.68 251  311 251  " fill-rule="nonzero" fill="#797979" stroke="none" />
</svg>