<?xml version="1.0" encoding="utf-8"?>
<svg version="1.1" xmlns:xlink="http://www.w3.org/1999/xlink" width="12px" height="12px" viewBox="222 277  12 12" xmlns="http://www.w3.org/2000/svg">
  <path d="M 228 277  C 231.36 277  234 279.64  234 283  C 234 286.36  231.36 289  228 289  C 224.64 289  222 286.36  222 283  C 222 279.64  224.64 277  228 277  Z " fill-rule="nonzero" fill="#ffffff" stroke="none" />
  <path d="M 228 277.5  C 231.08 277.5  233.5 279.92  233.5 283  C 233.5 286.08  231.08 288.5  228 288.5  C 224.92 288.5  222.5 286.08  222.5 283  C 222.5 279.92  224.92 277.5  228 277.5  Z " stroke-width="1" stroke="#797979" fill="none" />
  <path d="M 228 286  C 226.32 286  225 284.68  225 283  C 225 281.32  226.32 280  228 280  C 229.68 280  231 281.32  231 283  C 231 284.68  229.68 286  228 286  " fill-rule="nonzero" fill="#797979" stroke="none" />
</svg>