<svg t="1575602168803" class="icon" viewBox="0 0 1024 1024" version="1.1" xmlns="http://www.w3.org/2000/svg" p-id="7294" width="200" height="200"><path d="M512 959C265.129 959 65 758.871 65 512V115a50 50 0 0 1 50-50h794a50 50 0 0 1 50 50v397c0 246.871-200.129 447-447 447z m387-814a20 20 0 0 0-20-20H145a20 20 0 0 0-20 20v367c0 213.734 173.266 387 387 387s387-173.266 387-387V145zM722 295H332v390a30 30 0 0 1-60 0V265a30 30 0 0 1 30-30h420a30 30 0 0 1 0 60zM390.219 427H515.25v-20H392a30 30 0 0 1 0-60h123.25a30 30 0 0 1 60 0H699a30 30 0 0 1 0 60H575.25v20h125.031a29.968 29.968 0 0 1 29.969 29.969v0.062a29.924 29.924 0 0 1-1 7.561V612a30 30 0 0 1-60 0V487h-94v72.393a130.038 130.038 0 0 1 100.375 126.576h-0.21a29.991 29.991 0 0 1-59.978-0.438c0-0.574 0.055-1.134 0.086-1.7a69.989 69.989 0 0 0-139.945 2.139h-0.225a29.99 29.99 0 1 1-59.631-4.762 130.039 130.039 0 0 1 99.528-121.632V487h-95v125a30 30 0 0 1-60 0V456.969A29.968 29.968 0 0 1 390.219 427z" fill="#1afa29" p-id="7295"></path></svg>