<svg t="1575600452705" class="icon" viewBox="0 0 1024 1024" version="1.1" xmlns="http://www.w3.org/2000/svg" p-id="1963" width="200" height="200"><path d="M128 288v448l384 224 384-224V288L512 64 128 288z m704 416L512 896 192 704V320l320-192 320 192v384zM548 547.264V764a28 28 0 0 1-28 28 27.456 27.456 0 0 1-28-28V547.264L296 434.208a28 28 0 0 1 6.816-51.2 27.456 27.456 0 0 1 21.184 3.04l196 112 194.336-112a27.456 27.456 0 0 1 38.08 10.048 28 28 0 0 1-10.112 38.08L548 546.176v1.152z" fill="#333333" p-id="1964"></path></svg>