<?xml version="1.0" encoding="utf-8"?>
<svg version="1.1" xmlns:xlink="http://www.w3.org/1999/xlink" width="70px" height="70px" xmlns="http://www.w3.org/2000/svg">
  <g transform="matrix(1 0 0 1 -265 -421 )">
    <path d="M 300 422  C 319.04 422  334 436.96  334 456  C 334 475.04  319.04 490  300 490  C 280.96 490  266 475.04  266 456  C 266 436.96  280.96 422  300 422  Z " fill-rule="nonzero" fill="#ffffff" stroke="none" fill-opacity="0" />
    <path d="M 300 422  C 319.04 422  334 436.96  334 456  C 334 475.04  319.04 490  300 490  C 280.96 490  266 475.04  266 456  C 266 436.96  280.96 422  300 422  Z " stroke-width="2" stroke="#1afa29" fill="none" />
  </g>
</svg>