<?xml version="1.0" encoding="utf-8"?>
<svg version="1.1" xmlns:xlink="http://www.w3.org/1999/xlink" width="70px" height="70px" xmlns="http://www.w3.org/2000/svg">
  <g transform="matrix(1 0 0 1 -152 -421 )">
    <path d="M 187 422  C 206.04 422  221 436.96  221 456  C 221 475.04  206.04 490  187 490  C 167.96 490  153 475.04  153 456  C 153 436.96  167.96 422  187 422  Z " fill-rule="nonzero" fill="#ffffff" stroke="none" fill-opacity="0" />
    <path d="M 187 422  C 206.04 422  221 436.96  221 456  C 221 475.04  206.04 490  187 490  C 167.96 490  153 475.04  153 456  C 153 436.96  167.96 422  187 422  Z " stroke-width="2" stroke="#d81e06" fill="none" />
  </g>
</svg>