<?xml version="1.0" encoding="utf-8"?>
<svg version="1.1" xmlns:xlink="http://www.w3.org/1999/xlink" width="70px" height="70px" xmlns="http://www.w3.org/2000/svg">
  <g transform="matrix(1 0 0 1 -40 -421 )">
    <path d="M 75 422  C 94.04 422  109 436.96  109 456  C 109 475.04  94.04 490  75 490  C 55.96 490  41 475.04  41 456  C 41 436.96  55.96 422  75 422  Z " fill-rule="nonzero" fill="#ffffff" stroke="none" fill-opacity="0" />
    <path d="M 75 422  C 94.04 422  109 436.96  109 456  C 109 475.04  94.04 490  75 490  C 55.96 490  41 475.04  41 456  C 41 436.96  55.96 422  75 422  Z " stroke-width="2" stroke="#13227a" fill="none" />
  </g>
</svg>