<svg t="1576062945894" class="icon" viewBox="0 0 1024 1024" version="1.1" xmlns="http://www.w3.org/2000/svg" p-id="1909" width="200" height="200"><path d="M512.5 504.3C419 504.3 343 428.2 343 334.7s76-169.5 169.5-169.5S682 241.3 682 334.7s-76 169.6-169.5 169.6z m0-259.1c-49.4 0-89.5 40.2-89.5 89.5s40.2 89.5 89.5 89.5c49.4 0 89.5-40.2 89.5-89.5s-40.1-89.5-89.5-89.5zM755 862.8c-22.1 0-40-17.9-40-40V686.9c0-50.4-41-91.4-91.4-91.4H401.4c-50.4 0-91.4 41-91.4 91.4v135.9c0 22.1-17.9 40-40 40s-40-17.9-40-40V686.9c0-94.5 76.9-171.4 171.4-171.4h222.2c94.5 0 171.4 76.9 171.4 171.4v135.9c0 22.1-17.9 40-40 40z" fill="" p-id="1910"></path><path d="M361.7 862.8c-22.1 0-40-17.9-40-40v-63.1c0-22.1 17.9-40 40-40s40 17.9 40 40v63.1c0 22.1-17.9 40-40 40zM663.3 862.8c-22.1 0-40-17.9-40-40v-63.1c0-22.1 17.9-40 40-40s40 17.9 40 40v63.1c0 22.1-17.9 40-40 40zM798.6 1023H698.2c-22.1 0-40-17.9-40-40s17.9-40 40-40h100.4c79.1 0 143.4-64.3 143.4-143.4V698.8c0-22.1 17.9-40 40-40s40 17.9 40 40v100.8c0 59.7-23.2 115.8-65.4 158s-98.3 65.4-158 65.4zM982 364.9c-22.1 0-40-17.9-40-40v-97.5C942 148.3 877.7 84 798.6 84H698.2c-22.1 0-40-17.9-40-40s17.9-40 40-40h100.4c59.7 0 115.8 23.2 158 65.4s65.4 98.3 65.4 158v97.5c0 22.1-17.9 40-40 40zM43 367.6c-22.1 0-40-17.9-40-40V227.4c0-59.7 23.2-115.8 65.4-158S166.7 4 226.4 4h101.2c22.1 0 40 17.9 40 40s-17.9 40-40 40H226.4C147.3 84 83 148.3 83 227.4v100.2c0 22.1-17.9 40-40 40zM327.6 1023H226.4c-59.7 0-115.8-23.2-158-65.4S3 859.3 3 799.6V698.8c0-22.1 17.9-40 40-40s40 17.9 40 40v100.8C83 878.7 147.3 943 226.4 943h101.2c22.1 0 40 17.9 40 40s-17.9 40-40 40z" fill="" p-id="1911"></path></svg>