<svg t="1575780254097" class="icon" viewBox="0 0 1024 1024" version="1.1" xmlns="http://www.w3.org/2000/svg" p-id="3038" width="200" height="200"><path d="M285.568 1022.293333c-5.354667 0-10.730667-2.026667-14.890667-6.037333-8.448-8.234667-8.618667-21.738667-0.405333-30.165333l438.826667-450.538667c7.530667-7.722667 8.213333-17.408 7.957333-22.485333 0.448-10.88-2.389333-18.858667-7.957333-24.576L270.272 37.909333c-8.213333-8.448-8.042667-21.952 0.405333-30.165333 8.426667-8.213333 21.952-8.042667 30.165333 0.405333l438.848 450.581333c13.909333 14.314667 21.013333 33.6 20.010667 54.336 1.024 18.624-6.08 37.930667-20.010667 52.245333L300.842667 1015.829333C296.661333 1020.138667 291.114667 1022.293333 285.568 1022.293333z" p-id="3039"></path></svg>