<svg t="1575943781453" class="icon" viewBox="0 0 1024 1024" version="1.1" xmlns="http://www.w3.org/2000/svg" p-id="4936" width="200" height="200"><path d="M972.8 230.4c0-12.8-6.4-19.2-19.2-25.6L524.8 0h-25.6L70.4 204.8c-6.4 6.4-12.8 12.8-19.2 25.6-6.4 57.6-12.8 166.4 12.8 294.4 51.2 236.8 198.4 403.2 435.2 499.2h25.6c70.4-32 134.4-64 192-108.8 12.8-12.8 19.2-32 6.4-44.8-12.8-12.8-32-19.2-44.8-6.4-51.2 38.4-102.4 70.4-166.4 96-204.8-89.6-339.2-236.8-384-448-25.6-108.8-19.2-198.4-12.8-256L512 70.4 908.8 256c6.4 57.6 12.8 153.6-12.8 256-6.4 38.4-19.2 76.8-38.4 115.2-6.4 19.2 0 32 19.2 44.8 19.2 6.4 32 0 44.8-19.2 19.2-38.4 32-83.2 38.4-121.6 25.6-134.4 19.2-243.2 12.8-300.8z" p-id="4937"></path><path d="M691.2 633.6c57.6-83.2 51.2-198.4-19.2-268.8-83.2-83.2-211.2-83.2-294.4 0C294.4 448 294.4 576 377.6 659.2c38.4 38.4 96 64 147.2 64 44.8 0 83.2-12.8 121.6-38.4l128 128c6.4 6.4 12.8 6.4 25.6 6.4s19.2 0 25.6-6.4c12.8-12.8 12.8-32 0-44.8l-134.4-134.4z m-268.8-19.2c-57.6-57.6-57.6-147.2 0-204.8 25.6-25.6 64-44.8 102.4-44.8 38.4 0 76.8 12.8 102.4 44.8 57.6 57.6 57.6 147.2 0 204.8-57.6 51.2-147.2 51.2-204.8 0z" p-id="4938"></path></svg>