<svg t="1577172709025" class="icon" viewBox="0 0 1024 1024" version="1.1" xmlns="http://www.w3.org/2000/svg" p-id="4437" width="200" height="200"><path d="M918.136 923.916c0 49.324-39.985 89.309-89.309 89.309H231.702c-49.324 0-89.309-39.985-89.309-89.309V95.77c0-49.324 39.985-89.309 89.309-89.309h374.239l-0.001 49.908H278.949c-41.519 0-75.176 35.766-75.176 79.885v740.761c0 44.119 33.657 79.885 75.176 79.885h502.632c41.518 0 75.176-35.766 75.176-79.885V293.503l61.38 0.279" fill="#2c2c2c" p-id="4438"></path><path d="M897.763 278.556h-278.39V0.166l278.39 278.39zM661.652 103.287v130.198H791.85L661.652 103.287zM817.214 585.975c0 9.393-7.615 17.008-17.008 17.008h-510.25c-9.393 0-17.008-7.615-17.008-17.008 0-9.393 7.615-17.008 17.008-17.008h510.25c9.393 0 17.008 7.615 17.008 17.008zM610.913 492.834c0 9.393-4.729 17.008-10.561 17.008H283.509c-5.833 0-10.561-7.615-10.561-17.008 0-9.393 4.729-17.008 10.561-17.008h316.843c5.833 0 10.561 7.615 10.561 17.008zM610.913 407.793c0 9.393-4.729 17.008-10.561 17.008H283.509c-5.833 0-10.561-7.615-10.561-17.008 0-9.393 4.729-17.008 10.561-17.008h316.843c5.833-0.001 10.561 7.614 10.561 17.008zM817.214 676.156c0 9.393-7.615 17.008-17.008 17.008h-510.25c-9.393 0-17.008-7.615-17.008-17.008 0-9.393 7.615-17.008 17.008-17.008h510.25c9.393-0.001 17.008 7.614 17.008 17.008zM820.453 768.788c0 9.393-7.615 17.008-17.008 17.008h-510.25c-9.393 0-17.008-7.615-17.008-17.008 0-9.393 7.615-17.008 17.008-17.008h510.25c9.394-0.001 17.008 7.614 17.008 17.008z" fill="#2c2c2c" p-id="4439"></path></svg>