<svg t="1579221994486" class="icon" viewBox="0 0 1024 1024" version="1.1" xmlns="http://www.w3.org/2000/svg" p-id="2042" width="200" height="200"><path d="M512 511.991381m-255.995691 0a255.995691 255.995691 0 1 0 511.991382 0 255.995691 255.995691 0 1 0-511.991382 0Z" fill="#FDB201" p-id="2043"></path><path d="M477.491781 34.013294c0-18.773017 15.308542-34.013294 34.098626-34.013294h0.819186c18.841283 0 34.098626 15.154945 34.098626 34.013294V140.285639c0 18.790084-15.308542 34.03036-34.098626 34.03036h-0.819186a34.013294 34.013294 0 0 1-34.098626-34.03036V34.013294z m301.545857 70.996138a34.098626 34.098626 0 0 1 47.581066-7.458007l0.665589 0.460792a34.013294 34.013294 0 0 1 7.594539 47.581066l-62.462949 85.963352a34.098626 34.098626 0 0 1-47.581066 7.475075l-0.648522-0.477859a34.013294 34.013294 0 0 1-7.611605-47.581066l62.462948-85.963353z m199.540108 226.470855a34.098626 34.098626 0 0 1 42.904878 21.913231l0.238929 0.767987a34.013294 34.013294 0 0 1-21.810833 42.956077l-101.050032 32.835714a34.098626 34.098626 0 0 1-42.887812-21.930298l-0.255995-0.767987a34.013294 34.013294 0 0 1 21.810833-42.956077l101.050032-32.835714z m21.332974 295.384894a34.098626 34.098626 0 0 1 21.810833 42.956077l-0.238929 0.767987a34.013294 34.013294 0 0 1-42.904878 21.930298l-101.032966-32.835714a34.098626 34.098626 0 0 1-21.844966-42.956077l0.273062-0.767987a34.013294 34.013294 0 0 1 42.887812-21.930298l101.050032 32.835714zM834.895898 878.406547c11.041947 15.189078 7.594539 36.522052-7.594539 47.581066l-0.665589 0.460792a34.013294 34.013294 0 0 1-47.581065-7.458008l-62.462949-85.963353a34.098626 34.098626 0 0 1 7.611605-47.581066l0.648523-0.477858a34.013294 34.013294 0 0 1 47.581065 7.475074l62.462949 85.963353z m-288.370613 111.579988c0 18.773017-15.308542 34.013294-34.098626 34.013294h-0.819186a34.013294 34.013294 0 0 1-34.098626-34.013294V883.697124c0-18.790084 15.308542-34.03036 34.098626-34.03036h0.819186c18.841283 0 34.098626 15.172011 34.098626 34.03036v106.255278z m-301.545857-70.996138a34.098626 34.098626 0 0 1-47.581066 7.458008l-0.665588-0.460792a34.013294 34.013294 0 0 1-7.594539-47.581066l62.462948-85.963353a34.098626 34.098626 0 0 1 47.581066-7.475074l0.648523 0.477858a34.013294 34.013294 0 0 1 7.611605 47.581066l-62.462949 85.963353zM45.422254 692.502476a34.098626 34.098626 0 0 1-42.904878-21.913231l-0.238929-0.767987a34.013294 34.013294 0 0 1 21.810833-42.956077l101.050032-32.835714a34.098626 34.098626 0 0 1 42.887812 21.930298l0.255995 0.767987a34.013294 34.013294 0 0 1-21.810833 42.956077L45.405188 692.519543zM24.072213 397.134648a34.098626 34.098626 0 0 1-21.810832-42.956077l0.238929-0.767987a34.013294 34.013294 0 0 1 42.904878-21.930297l101.032966 32.835714a34.098626 34.098626 0 0 1 21.844965 42.956077l-0.273062 0.767987a34.013294 34.013294 0 0 1-42.887811 21.930297l-101.050033-32.835714zM189.104102 145.576216a34.098626 34.098626 0 0 1 7.594539-47.581066l0.665589-0.460792a34.013294 34.013294 0 0 1 47.581065 7.458008l62.462949 85.963353c11.041947 15.206144 7.594539 36.522052-7.611605 47.581066l-0.648523 0.477858a34.013294 34.013294 0 0 1-47.581065-7.475074L189.104102 145.576216z" fill="#FDB201" p-id="2044"></path></svg>