<svg t="1575942697727" class="icon" viewBox="0 0 1341 1024" version="1.1" xmlns="http://www.w3.org/2000/svg" p-id="2746" width="200" height="200"><path d="M1151.940321 555.245609l40.494528 225.056346-67.583732-27.54921C1037.712044 913.891346 866.368991 1024.000019 669.054801 1024.000019c-218.188211 0-405.036001-134.511957-481.059554-324.039278l129.476176 0c67.843124 123.321049 199.799496 207.261806 351.583377 207.261806 148.17795 0 277.130231-80.341215 346.086313-198.823263l-62.087946-25.319462L1151.940321 555.245609 1151.940321 555.245609 1151.940321 555.245609zM322.896932 315.664593l62.153114 25.255572L186.162893 468.819546 145.668365 243.698032l67.583732 27.542821C300.39628 110.17253 471.735501-3.2e-05 669.054801-3.2e-05c218.246989 0 405.029612 134.506846 481.053165 324.039278L1020.636901 324.039246C952.793776 200.718197 820.767126 116.712273 669.054801 116.712273 520.93563 116.712273 391.923292 197.117378 322.896932 315.664593L322.896932 315.664593 322.896932 315.664593zM669.054801 659.264322" p-id="2747"></path><path d="M670.332594 291.969206c-199.974554 0-305.904845 218.502548-305.904845 218.502548s104.766222 218.50127 305.904845 218.50127c188.085971 0 305.898456-218.50127 305.898456-218.50127S859.582634 291.969206 670.332594 291.969206L670.332594 291.969206 670.332594 291.969206zM670.332594 425.986657c47.077716 0 85.241549 37.812441 85.241549 84.427596 0 46.731434-38.163834 84.542597-85.241549 84.542597-47.140327 0-85.245383-37.811163-85.245383-84.542597 0-11.130852 2.270638-21.791476 6.174294-31.580646l79.071089 31.580646-23.485829-81.228003C654.306518 427.209505 662.112554 425.986657 670.332594 425.986657L670.332594 425.986657 670.332594 425.986657zM670.332594 641.629505c-72.661681 0-131.630535-58.732463-131.630535-131.157752 0-72.426567 58.968854-131.217808 131.630535-131.217808 72.655292 0 131.567923 58.791241 131.567923 131.217808C801.899239 582.89832 742.987886 641.629505 670.332594 641.629505L670.332594 641.629505zM670.332594 641.629505" p-id="2748"></path></svg>