<svg t="1575946637633" class="icon" viewBox="0 0 1024 1024" version="1.1" xmlns="http://www.w3.org/2000/svg" p-id="11629" width="200" height="200"><path d="M511.83125 677.99375a33.46875 33.46875 0 0 1-33.35625-33.35625V411.425c0-18.3375 15.075-33.3 33.35625-33.3 18.28125 0 33.35625 14.9625 33.35625 33.3v233.2125a33.525 33.525 0 0 1-33.35625 33.35625z m0 134.94375a26.26875 26.26875 0 0 1-26.6625-26.6625v-50.00625c0-15.01875 11.64375-26.6625 26.6625-26.6625s26.6625 11.64375 26.6625 26.6625v50.00625a26.38125 26.38125 0 0 1-26.6625 26.6625z m0 0" p-id="11630"></path><path d="M928.25 927.9125H95.3a32.00625 32.00625 0 0 1-28.29375-16.70625 30.375 30.375 0 0 1 0-33.3l93.31875-171.61875c8.325-16.65 28.29375-21.65625 45-13.275 16.59375 8.325 21.6 28.29375 13.33125 44.94375L152 861.2h721.35L511.83125 198.2375l-163.2375 301.5c-8.325 16.59375-28.29375 21.65625-45 13.33125-16.65-8.325-21.65625-28.29375-13.33125-45L481.85 111.6125a35.04375 35.04375 0 0 1 29.98125-16.70625c11.7 0 23.34375 6.6375 29.98125 16.65l416.475 766.29375a38.8125 38.8125 0 0 1 0 33.3 37.29375 37.29375 0 0 1-30.0375 16.7625z m0 0" p-id="11631"></path></svg>