<svg t="1589271184442" class="icon" viewBox="0 0 1024 1024" version="1.1" xmlns="http://www.w3.org/2000/svg" p-id="2162" width="200" height="200"><path d="M810.667 810.667c1.046 0 0 0.93 0 4.74v-4.74z m0 0V524.463c0-23.564 19.102-42.667 42.666-42.667 23.564 0 42.667 19.103 42.667 42.667v290.944C896 861.11 856.749 896 810.667 896H213.333C167.251 896 128 861.11 128 815.407V208.593C128 162.89 167.251 128 213.333 128h390.084c23.564 0 42.666 19.103 42.666 42.667s-19.102 42.666-42.666 42.666H213.333v597.334h597.334z m-597.334 0v4.74c0-3.81-1.046-4.74 0-4.74z m0-602.074v4.74c-1.046 0 0-0.93 0-4.74zM542.17 584.837c-16.662 16.662-43.678 16.662-60.34 0-16.662-16.663-16.662-43.678 0-60.34l341.333-341.334c16.663-16.662 43.678-16.662 60.34 0 16.663 16.663 16.663 43.678 0 60.34L542.17 584.837z" p-id="2163" fill="#2c2c2c"></path></svg>