<svg t="1588731340949" class="icon" viewBox="0 0 1024 1024" version="1.1" xmlns="http://www.w3.org/2000/svg" p-id="1771" width="200" height="200"><path d="M743.714386 183.691649l0.054235-52.394301-0.070608 0c0.042979-0.642636 0.070608-1.294482 0.070608-1.949398 0-34.759665-42.496883-37.006845-42.496883-2.248204 0-25.795503 0 56.591903 0 56.591903L319.28586 183.691649l0-56.591903 0 0c0.039909-0.642636 0 0.653893 0 0 0-34.759665-42.442648-34.759665-42.442648 0 0-24.819269 0 56.591903 0 56.591903L149.514245 183.691649c-50.248428 0-84.885296 43.704384-84.885296 94.231151l0 549.809117c0 50.522674 40.879036 91.634 91.12644 91.634l709.044772 0c50.249451 0 91.12951-41.111327 91.12951-91.634L955.929672 277.923824c0-50.526767-34.637892-94.231151-84.885296-94.231151L743.714386 183.692672zM856.895121 226.133274c16.749476 0 56.590879 25.600051 56.590879 42.442648l0 113.182782L743.714386 381.758704 743.714386 226.133274 856.895121 226.133274zM701.271738 381.758704 319.28586 381.758704 319.28586 226.133274l381.985878 0L701.271738 381.758704zM276.843212 226.133274l0 155.62543L107.071597 381.758704 107.071597 268.575922c0-16.842597 25.693172-42.442648 42.442648-42.442648L276.843212 226.133274zM856.895121 876.925317 163.662477 876.925317c-16.749476 0-56.590879-39.754423-56.590879-56.590879L107.071597 424.201351l806.414403 0 0 410.280294C913.486 854.41872 856.895121 876.925317 856.895121 876.925317z" p-id="1772" fill="#2c2c2c"></path></svg>