<?xml version="1.0" encoding="utf-8"?>
<svg version="1.1" xmlns:xlink="http://www.w3.org/1999/xlink" width="10px" height="5px" xmlns="http://www.w3.org/2000/svg">
  <g transform="matrix(1 0 0 1 -55 -54 )">
    <path d="M 9.814453125 0.164930555555556  C 9.93815104166667 0.274884259259258  10 0.405092592592591  10 0.555555555555556  C 10 0.706018518518518  9.93815104166667 0.836226851851851  9.814453125 0.946180555555556  L 5.439453125 4.83506944444444  C 5.31575520833333 4.94502314814815  5.16927083333333 5  5 5  C 4.83072916666667 5  4.68424479166667 4.94502314814815  4.560546875 4.83506944444444  L 0.185546875 0.946180555555556  C 0.0618489583333333 0.836226851851851  0 0.706018518518518  0 0.555555555555556  C 0 0.405092592592591  0.0618489583333333 0.274884259259258  0.185546875 0.164930555555556  C 0.309244791666667 0.0549768518518512  0.455729166666667 0  0.625 0  L 9.375 0  C 9.54427083333333 0  9.69075520833333 0.0549768518518512  9.814453125 0.164930555555556  Z " fill-rule="nonzero" fill="#000000" stroke="none" transform="matrix(1 0 0 1 55 54 )" />
  </g>
</svg>