<svg t="1575942665779" class="icon" viewBox="0 0 1024 1024" version="1.1" xmlns="http://www.w3.org/2000/svg" p-id="2553" width="200" height="200"><path d="M755.924195 576.003372a288.634929 288.634929 0 0 0 268.155005-287.354933 275.194979 275.194979 0 0 0-10.87996-78.719708 32.639879 32.639879 0 0 0-39.679853-22.399917 31.999881 31.999881 0 0 0-13.43895 8.319969l-55.039796 55.679794a95.358646 95.358646 0 0 1-127.996525 0 92.798656 92.798656 0 0 1 0-127.997525l55.038796-59.51978a31.999881 31.999881 0 0 0 0-45.438831 28.799893 28.799893 0 0 0-15.99994-5.759979 292.474915 292.474915 0 0 0-78.718708-12.799952 286.714936 286.714936 0 0 0-289.274927 288.635929 229.11615 229.11615 0 0 0 4.479984 46.078829l-37.75986 34.559872-183.676319-183.037321a96.638641 96.638641 0 0 0-18.559931-109.438594l-63.998762-63.998763a30.719886 30.719886 0 0 0-44.799834 0l-94.077651 87.679675a30.719886 30.719886 0 0 0 0 44.798834l67.199751 63.998762a94.078651 94.078651 0 0 0 109.437594 18.559931l181.116327 184.316316L57.055788 696.320926A191.996288 191.996288 0 0 0 0.097 831.998423a191.996288 191.996288 0 0 0 56.319791 135.037498 191.996288 191.996288 0 0 0 272.634988 0L547.287969 728.959805l255.99505 255.99605a127.997525 127.997525 0 0 0 92.798656 39.039855 127.997525 127.997525 0 0 0 90.238665-218.23719zM167.774377 167.689888a32.639879 32.639879 0 0 1-45.439831 0l-44.158836-44.799834 44.799834-44.798834 44.798833 44.159836a31.999881 31.999881 0 0 1 0 45.439832z m115.197573 755.187197a127.997525 127.997525 0 0 1-181.116328 0 127.997525 127.997525 0 0 1 0-179.837332L508.248114 369.28614h3.839986a30.079888 30.079888 0 0 0 0-8.31997 42.239843 42.239843 0 0 0 0-9.599964 8.319969 8.319969 0 0 0 0-3.839986 197.756266 197.756266 0 0 1 0-59.517779A224.636166 224.636166 0 0 1 739.924254 64.011272l-10.239962 10.239962a157.437416 157.437416 0 0 0 0 221.435179 156.797418 156.797418 0 0 0 220.796181 0l9.599964-10.87996a223.356171 223.356171 0 0 1-273.914983 218.23719h-17.279936s-3.199988 0-5.119981 3.839986z m658.548556 18.559931a63.999763 63.999763 0 0 1-90.237665 0L602.966762 693.120938l90.238666-90.238665L941.520506 851.198351a63.999763 63.999763 0 0 1 18.559931 44.799834 63.999763 63.999763 0 0 1-18.559931 45.438831zM192.093287 767.99866a63.999763 63.999763 0 1 0 0 127.997525 63.999763 63.999763 0 0 0 0-127.997525z m0 0" p-id="2554"></path></svg>