<svg t="1575600552190" class="icon" viewBox="0 0 1024 1024" version="1.1" xmlns="http://www.w3.org/2000/svg" p-id="3487" width="200" height="200"><path d="M512 63.993751c54.794649 0 106.28962 21.29792 145.085831 60.094131s60.094131 90.291183 60.094132 145.085832c0 36.696416-9.499072 81.192071-26.597403 125.287764-17.798262 45.695538-42.995801 88.591349-71.093057 120.788205-19.398106 22.297822-26.197442 52.494874-18.198223 80.8921 7.999219 28.297237 29.59711 50.495069 57.694366 59.29421 71.892979 22.497803 144.885851 55.894542 200.180451 91.391075 27.097354 17.398301 49.395176 35.096573 64.493702 51.09501 11.498877 12.198809 16.598379 21.19793 18.298213 25.69749V959.906259H82.041988V824.519481c1.599844-3.999609 6.199395-12.998731 19.098135-26.497413 15.298506-16.098428 37.796309-33.7967 64.793673-51.294991 55.2946-35.596524 127.887511-68.793282 199.280539-91.291084 28.097256-8.799141 49.595157-30.996973 57.594375-59.3942s1.199883-58.594278-18.198223-80.79211c-28.097256-32.196856-53.394786-75.092667-71.193047-120.788205-17.19832-44.195684-26.697393-88.691339-26.697393-125.387755 0-54.794649 21.29792-106.28962 60.094131-145.085831S457.205351 63.993751 512 63.993751m0-63.993751C363.41451 0 242.926277 120.488234 242.926277 269.073723c0 90.691143 44.895616 209.379553 113.588907 288.171858 10.898936 12.498779 5.499463 32.096866-10.298994 37.096378C195.330925 641.937311 33.546724 736.128112 18.448198 814.920418c-0.299971 1.299873-0.399961 2.699736-0.399961 4.0996v181.982228c0 12.69876 10.298994 22.997754 22.997755 22.997754h941.908016c12.69876 0 22.997754-10.298994 22.997755-22.997754V818.720047c0-1.199883-0.09999-2.399766-0.299971-3.599649-13.298701-78.792305-176.082804-173.283078-327.668001-220.778439-15.898447-4.999512-21.29792-24.597598-10.398985-37.096378 68.693292-78.792305 113.488917-197.480715 113.488917-288.071867C781.073723 120.488234 660.58549 0 512 0z" fill="" p-id="3488"></path></svg>