<svg t="1575600508565" class="icon" viewBox="0 0 1024 1024" version="1.1" xmlns="http://www.w3.org/2000/svg" p-id="2720" width="200" height="200"><path d="M115.2 230.4c-63.5136 0-115.2-51.6864-115.2-115.2s51.6864-115.2 115.2-115.2 115.2 51.6864 115.2 115.2-51.6864 115.2-115.2 115.2zM115.2 51.2C79.9104 51.2 51.2 79.9104 51.2 115.2s28.7104 64 64 64 64-28.7104 64-64-28.7104-64-64-64zM908.8 384c-63.5264 0-115.2-51.6864-115.2-115.2s51.6736-115.2 115.2-115.2 115.2 51.6864 115.2 115.2-51.6736 115.2-115.2 115.2z m0-179.2c-35.2896 0-64 28.7104-64 64s28.7104 64 64 64 64-28.7104 64-64-28.7104-64-64-64zM908.8 1024c-63.5264 0-115.2-51.6736-115.2-115.2s51.6736-115.2 115.2-115.2 115.2 51.6736 115.2 115.2-51.6736 115.2-115.2 115.2z m0-179.2c-35.2896 0-64 28.7104-64 64s28.7104 64 64 64 64-28.7104 64-64-28.7104-64-64-64zM512 787.2c-63.5136 0-115.2-51.6736-115.2-115.2s51.6864-115.2 115.2-115.2c63.5264 0 115.2 51.6736 115.2 115.2s-51.6736 115.2-115.2 115.2z m0-179.2c-35.2896 0-64 28.7104-64 64s28.7104 64 64 64 64-28.7104 64-64-28.7104-64-64-64zM512 467.2c-63.5136 0-115.2-51.6864-115.2-115.2s51.6864-115.2 115.2-115.2c63.5264 0 115.2 51.6864 115.2 115.2s-51.6736 115.2-115.2 115.2z m0-179.2c-35.2896 0-64 28.7104-64 64s28.7104 64 64 64 64-28.7104 64-64-28.7104-64-64-64zM115.2 870.4c-63.5136 0-115.2-51.6736-115.2-115.2s51.6864-115.2 115.2-115.2 115.2 51.6736 115.2 115.2-51.6864 115.2-115.2 115.2z m0-179.2c-35.2896 0-64 28.7104-64 64s28.7104 64 64 64 64-28.7104 64-64-28.7104-64-64-64z" fill="#333333" p-id="2721"></path><path d="M457.4976 626.56a25.5616 25.5616 0 0 1-20.9408-10.8416L145.856 203.1488a25.6 25.6 0 0 1 41.8688-29.4784l290.6752 412.5312a25.6 25.6 0 0 1-20.9024 40.3584zM577.3952 636.544a25.6 25.6 0 0 1-18.3936-43.4048l269.0688-277.888a25.6 25.6 0 1 1 36.7744 35.6096l-269.056 277.9008a25.5616 25.5616 0 0 1-18.3936 7.7824z" fill="#333333" p-id="2722"></path><path d="M177.536 716.544a25.6 25.6 0 0 1-18.3936-43.4048l269.056-277.888a25.6 25.6 0 0 1 36.7872 35.6096l-269.056 277.9008a25.5616 25.5616 0 0 1-18.3936 7.7824z" fill="#333333" p-id="2723"></path><path d="M857.2544 861.184a25.5232 25.5232 0 0 1-20.9536-10.8672l-290.688-412.5312a25.6 25.6 0 1 1 41.8176-29.5168l290.7136 412.5696a25.5744 25.5744 0 0 1-20.8896 40.3456z" fill="#333333" p-id="2724"></path></svg>