<svg t="1575601569248" class="icon" viewBox="0 0 1024 1024" version="1.1" xmlns="http://www.w3.org/2000/svg" p-id="5058" width="200" height="200"><path d="M512 1024c-6.4 0-6.4 0-12.8 0-38.4-12.8-76.8-25.6-108.8-38.4-153.6-51.2-320-108.8-320-320L70.4 172.8c0-19.2 12.8-32 32-32 256 0 390.4-134.4 390.4-134.4C492.8 6.4 505.6 0 512 0c0 0 0 0 0 0 6.4 0 19.2 6.4 25.6 12.8 0 0 134.4 134.4 390.4 134.4 19.2 0 32 12.8 32 32l0 486.4c0 211.2-172.8 268.8-320 320-38.4 12.8-76.8 25.6-108.8 38.4C518.4 1024 518.4 1024 512 1024zM128 204.8l0 454.4c0 166.4 128 211.2 275.2 262.4C441.6 934.4 480 940.8 512 960c32-12.8 70.4-25.6 102.4-38.4 147.2-51.2 275.2-89.6 275.2-262.4L889.6 204.8c-204.8-6.4-332.8-89.6-384-134.4C460.8 115.2 332.8 198.4 128 204.8z" p-id="5059" fill="#13227a"></path><path d="M512 409.6m-83.2 0a1.3 1.3 0 1 0 166.4 0 1.3 1.3 0 1 0-166.4 0Z" p-id="5060" fill="#13227a"></path><path d="M563.2 697.6 460.8 697.6 486.4 428.8 537.6 428.8Z" p-id="5061" fill="#13227a"></path></svg>