<svg t="1575600385231" class="icon" viewBox="0 0 1024 1024" version="1.1" xmlns="http://www.w3.org/2000/svg" p-id="1152" width="200" height="200"><path d="M940.8512 409.31328 518.77888 99.18464c-4.58752-3.3792-9.95328-4.89472-15.23712-4.75136-5.28384-0.14336-10.67008 1.37216-15.23712 4.75136L66.21184 409.31328c-10.91584 8.02816-13.23008 23.32672-5.18144 34.18112 8.04864 10.87488 23.42912 13.16864 34.34496 5.16096l58.04032-42.63936 0 442.44992c0 33.03424 27.11552 64.86016 65.16736 64.86016l177.19296 0c0 0 4.99712 0.16384 10.73152-2.62144 2.64192-1.20832 5.36576-2.99008 7.61856-5.59104 6.22592-6.61504 6.22592-15.54432 6.22592-15.54432l0-164.9664c0 0-1.76128-28.30336 27.7504-28.30336l89.41568 0c15.31904 0 27.7504 11.93984 27.7504 26.68544l0 167.85408c0 0-0.12288 8.0896 7.00416 15.42144 6.08256 6.94272 17.24416 7.0656 17.24416 7.0656l200.704 0c38.05184 0 65.16736-31.82592 65.16736-64.86016L855.38816 407.2448l56.34048 41.39008c10.91584 8.02816 26.29632 5.71392 34.34496-5.16096C954.08128 432.61952 951.76704 417.32096 940.8512 409.31328L940.8512 409.31328M807.34208 827.24864c0 16.11776-5.98016 37.13024-40.93952 37.13024l-152.02304 0 0-153.68192c0-34.38592-34.67264-62.19776-63.11936-62.19776l-116.98176 0c-28.44672 0-63.11936 27.81184-63.11936 62.19776l0 153.68192-128.79872 0c-34.97984 0-40.93952-21.01248-40.93952-37.13024l0.36864-456.8064L503.54176 148.74624l303.43168 222.94528L807.34208 827.24864 807.34208 827.24864M807.34208 827.24864" p-id="1153"></path></svg>