<?xml version="1.0" encoding="utf-8"?>
<svg version="1.1" xmlns:xlink="http://www.w3.org/1999/xlink" width="70px" height="70px" xmlns="http://www.w3.org/2000/svg">
  <g transform="matrix(1 0 0 1 -40 -541 )">
    <path d="M 75 542  C 94.04 542  109 556.96  109 576  C 109 595.04  94.04 610  75 610  C 55.96 610  41 595.04  41 576  C 41 556.96  55.96 542  75 542  Z " fill-rule="nonzero" fill="#ffffff" stroke="none" fill-opacity="0" />
    <path d="M 75 542  C 94.04 542  109 556.96  109 576  C 109 595.04  94.04 610  75 610  C 55.96 610  41 595.04  41 576  C 41 556.96  55.96 542  75 542  Z " stroke-width="2" stroke="#f4ea2a" fill="none" />
  </g>
</svg>