<svg t="1575604175259" class="icon" viewBox="0 0 1024 1024" version="1.1" xmlns="http://www.w3.org/2000/svg" p-id="9409" width="200" height="200"><path d="M900 302.6m-14 0a14 14 0 1 0 28 0 14 14 0 1 0-28 0Z" p-id="9410"></path><path d="M639.3 418.7c-72.8 0-132 59.2-132 132s59.2 132 132 132 132-59.2 132-132-59.2-132-132-132z m0 260c-70.6 0-128-57.4-128-128s57.4-128 128-128 128 57.4 128 128-57.4 128-128 128z" p-id="9411"></path><path d="M940 242.6H280v-17.3c0-13.2-10.8-24-24-24H138c-13.2 0-24 10.8-24 24v17.3H84c-11 0-20 6.3-20 13.9v552.1c0 7.7 9 13.9 20 13.9h856c11 0 20-6.3 20-13.9v-552c0-7.7-9-14-20-14z m-810-17.2c0-4.4 3.6-8 8-8h118c4.4 0 8 3.6 8 8v17.3H130v-17.3z m814 568.1c0 7.2-8.7 13.2-19.3 13.2H99.3c-10.6 0-19.3-5.9-19.3-13.2v-309h407.2c-8.9 20.3-13.8 42.7-13.8 66.3 0 91.5 74.5 166 166 166s166-74.5 166-166c0-23.5-4.9-45.9-13.8-66.3H944v309zM789.3 550.7c0 82.7-67.3 150-150 150s-150-67.3-150-150 67.3-150 150-150 150 67.3 150 150z m-5.8-82.2c-28.6-50-82.5-83.7-144.1-83.7s-115.5 33.8-144.1 83.7H80V271.8c0-7.2 8.7-13.2 19.3-13.2h825.5c10.6 0 19.3 5.9 19.3 13.2v196.7H783.5z" p-id="9412"></path></svg>