<svg t="1575777899272" class="icon" viewBox="0 0 1024 1024" version="1.1" xmlns="http://www.w3.org/2000/svg" p-id="1163" width="200" height="200"><path d="M485.376 238.933333A239.388444 239.388444 0 1 0 724.764444 477.866667a239.616 239.616 0 0 0-239.388444-238.933334z m0 444.643556a204.8 204.8 0 1 1 204.8-204.8 204.8 204.8 0 0 1-204.8 203.889778z" p-id="1164"></path><path d="M403.456 344.519111a155.875556 155.875556 0 0 0-75.093333 133.347556 17.066667 17.066667 0 0 0 34.133333 0 121.969778 121.969778 0 0 1 58.709333-104.675556 17.066667 17.066667 0 0 0-17.749333-28.672zM773.688889 755.939556l-78.279111-78.279112a17.066667 17.066667 0 0 0-24.120889 24.120889l78.279111 78.279111A17.066667 17.066667 0 1 0 773.688889 755.939556z" p-id="1165"></path></svg>