<svg t="1575779993645" class="icon" viewBox="0 0 1024 1024" version="1.1" xmlns="http://www.w3.org/2000/svg" p-id="2178" width="200" height="200"><path d="M866.4 649.8H817v-86.5c0-23.2-28.1-41.4-63.9-41.4H521.8v-88.7h167.4c32.6 0 59.1-26.5 59.1-59V157.6c0-32.6-26.5-59.1-59.1-59.1H334.8c-32.6 0-59.1 26.5-59.1 59.1v216.5c0 32.6 26.5 59.1 59.1 59.1h167.4v88.7H270.7c-35.9 0-63.9 18.2-63.9 41.4v86.5h-49.2c-32.6 0-59.1 26.5-59.1 59.1v157.5c0 32.6 26.5 59.1 59.1 59.1h118.1c32.6 0 59.1-26.5 59.1-59.1V708.9c0-32.6-26.5-59.1-59.1-59.1h-49.3v-86.5c0-10.3 18.9-21.8 44.3-21.8h231.5v108.3h-49.3c-32.6 0-59.1 26.5-59.1 59.1v157.5c0 32.6 26.5 59.1 59.1 59.1h118.2c15.8 0 30.7-6.2 41.8-17.4 11.1-11.2 17.2-26 17.1-41.7V708.9c0-32.6-26.5-59.1-59.1-59.1h-49.2V541.5H753c20.9 0 44.3 9.3 44.3 21.8v86.5h-49.1c-32.6 0-59.1 26.5-59.1 59.1v157.5c0 32.6 26.5 59.1 59.1 59.1h118.1c32.6 0 59.1-26.5 59.1-59.1V708.9c0.1-32.6-26.4-59.1-59-59.1zM315.1 374.1V157.6c0-10.9 8.8-19.7 19.7-19.7h354.4c10.9 0 19.7 8.8 19.7 19.7v216.6c0 10.8-8.8 19.6-19.7 19.6H334.8c-10.9 0-19.7-8.8-19.7-19.7z m-19.7 334.8v157.5c0 10.9-8.8 19.7-19.7 19.7H157.6c-10.9 0-19.7-8.8-19.7-19.7V708.9c0-10.9 8.8-19.7 19.7-19.7h118.1c10.9 0 19.7 8.8 19.7 19.7z m295.3 0v157.6c0 5.2-2 10.1-5.7 13.8-3.7 3.7-8.7 5.8-13.9 5.8H452.9c-10.9 0-19.7-8.8-19.7-19.7V708.9c0-10.9 8.8-19.7 19.7-19.7H571c10.9 0 19.7 8.8 19.7 19.7z m295.4 157.5c0 10.9-8.8 19.7-19.7 19.7H748.3c-10.9 0-19.7-8.8-19.7-19.7V708.9c0-10.9 8.8-19.7 19.7-19.7h118.1c10.9 0 19.7 8.8 19.7 19.7v157.5z" p-id="2179" fill="#3478F7"></path></svg>