<?xml version="1.0" encoding="utf-8"?>
<svg version="1.1" xmlns:xlink="http://www.w3.org/1999/xlink" width="12px" height="12px" viewBox="266 346  12 12" xmlns="http://www.w3.org/2000/svg">
  <path d="M 272 346  C 275.36 346  278 348.64  278 352  C 278 355.36  275.36 358  272 358  C 268.64 358  266 355.36  266 352  C 266 348.64  268.64 346  272 346  Z " fill-rule="nonzero" fill="#ffffff" stroke="none" />
  <path d="M 272 346.5  C 275.08 346.5  277.5 348.92  277.5 352  C 277.5 355.08  275.08 357.5  272 357.5  C 268.92 357.5  266.5 355.08  266.5 352  C 266.5 348.92  268.92 346.5  272 346.5  Z " stroke-width="1" stroke="#797979" fill="none" />
  <path d="M 272 355  C 270.32 355  269 353.68  269 352  C 269 350.32  270.32 349  272 349  C 273.68 349  275 350.32  275 352  C 275 353.68  273.68 355  272 355  " fill-rule="nonzero" fill="#797979" stroke="none" />
</svg>