<?xml version="1.0" encoding="utf-8"?>
<svg version="1.1" xmlns:xlink="http://www.w3.org/1999/xlink" width="12px" height="12px" viewBox="266 190  12 12" xmlns="http://www.w3.org/2000/svg">
  <path d="M 272 190  C 275.36 190  278 192.64  278 196  C 278 199.36  275.36 202  272 202  C 268.64 202  266 199.36  266 196  C 266 192.64  268.64 190  272 190  Z " fill-rule="nonzero" fill="#ffffff" stroke="none" />
  <path d="M 272 190.5  C 275.08 190.5  277.5 192.92  277.5 196  C 277.5 199.08  275.08 201.5  272 201.5  C 268.92 201.5  266.5 199.08  266.5 196  C 266.5 192.92  268.92 190.5  272 190.5  Z " stroke-width="1" stroke="#797979" fill="none" />
  <path d="M 272 199  C 270.32 199  269 197.68  269 196  C 269 194.32  270.32 193  272 193  C 273.68 193  275 194.32  275 196  C 275 197.68  273.68 199  272 199  " fill-rule="nonzero" fill="#797979" stroke="none" />
</svg>