<?xml version="1.0" encoding="utf-8"?>
<svg version="1.1" xmlns:xlink="http://www.w3.org/1999/xlink" width="12px" height="12px" viewBox="317 346  12 12" xmlns="http://www.w3.org/2000/svg">
  <path d="M 323 346  C 326.36 346  329 348.64  329 352  C 329 355.36  326.36 358  323 358  C 319.64 358  317 355.36  317 352  C 317 348.64  319.64 346  323 346  Z " fill-rule="nonzero" fill="#ffffff" stroke="none" />
  <path d="M 323 346.5  C 326.08 346.5  328.5 348.92  328.5 352  C 328.5 355.08  326.08 357.5  323 357.5  C 319.92 357.5  317.5 355.08  317.5 352  C 317.5 348.92  319.92 346.5  323 346.5  Z " stroke-width="1" stroke="#797979" fill="none" />
  <path d="M 323 355  C 321.32 355  320 353.68  320 352  C 320 350.32  321.32 349  323 349  C 324.68 349  326 350.32  326 352  C 326 353.68  324.68 355  323 355  " fill-rule="nonzero" fill="#797979" stroke="none" />
</svg>