<?xml version="1.0" encoding="utf-8"?>
<svg version="1.1" xmlns:xlink="http://www.w3.org/1999/xlink" width="12px" height="12px" viewBox="317 456  12 12" xmlns="http://www.w3.org/2000/svg">
  <path d="M 323 456  C 326.36 456  329 458.64  329 462  C 329 465.36  326.36 468  323 468  C 319.64 468  317 465.36  317 462  C 317 458.64  319.64 456  323 456  Z " fill-rule="nonzero" fill="#ffffff" stroke="none" />
  <path d="M 323 456.5  C 326.08 456.5  328.5 458.92  328.5 462  C 328.5 465.08  326.08 467.5  323 467.5  C 319.92 467.5  317.5 465.08  317.5 462  C 317.5 458.92  319.92 456.5  323 456.5  Z " stroke-width="1" stroke="#797979" fill="none" />
  <path d="M 323 465  C 321.32 465  320 463.68  320 462  C 320 460.32  321.32 459  323 459  C 324.68 459  326 460.32  326 462  C 326 463.68  324.68 465  323 465  " fill-rule="nonzero" fill="#797979" stroke="none" />
</svg>