<?xml version="1.0" encoding="utf-8"?>
<svg version="1.1" xmlns:xlink="http://www.w3.org/1999/xlink" width="12px" height="12px" viewBox="266 456  12 12" xmlns="http://www.w3.org/2000/svg">
  <path d="M 272 456  C 275.36 456  278 458.64  278 462  C 278 465.36  275.36 468  272 468  C 268.64 468  266 465.36  266 462  C 266 458.64  268.64 456  272 456  Z " fill-rule="nonzero" fill="#ffffff" stroke="none" />
  <path d="M 272 456.5  C 275.08 456.5  277.5 458.92  277.5 462  C 277.5 465.08  275.08 467.5  272 467.5  C 268.92 467.5  266.5 465.08  266.5 462  C 266.5 458.92  268.92 456.5  272 456.5  Z " stroke-width="1" stroke="#797979" fill="none" />
  <path d="M 272 465  C 270.32 465  269 463.68  269 462  C 269 460.32  270.32 459  272 459  C 273.68 459  275 460.32  275 462  C 275 463.68  273.68 465  272 465  " fill-rule="nonzero" fill="#797979" stroke="none" />
</svg>