<?xml version="1.0" encoding="utf-8"?>
<svg version="1.1" xmlns:xlink="http://www.w3.org/1999/xlink" width="12px" height="12px" viewBox="266 546  12 12" xmlns="http://www.w3.org/2000/svg">
  <path d="M 272 546  C 275.36 546  278 548.64  278 552  C 278 555.36  275.36 558  272 558  C 268.64 558  266 555.36  266 552  C 266 548.64  268.64 546  272 546  Z " fill-rule="nonzero" fill="#ffffff" stroke="none" />
  <path d="M 272 546.5  C 275.08 546.5  277.5 548.92  277.5 552  C 277.5 555.08  275.08 557.5  272 557.5  C 268.92 557.5  266.5 555.08  266.5 552  C 266.5 548.92  268.92 546.5  272 546.5  Z " stroke-width="1" stroke="#797979" fill="none" />
  <path d="M 272 555  C 270.32 555  269 553.68  269 552  C 269 550.32  270.32 549  272 549  C 273.68 549  275 550.32  275 552  C 275 553.68  273.68 555  272 555  " fill-rule="nonzero" fill="#797979" stroke="none" />
</svg>