<?xml version="1.0" encoding="utf-8"?>
<svg version="1.1" xmlns:xlink="http://www.w3.org/1999/xlink" width="12px" height="12px" viewBox="317 546  12 12" xmlns="http://www.w3.org/2000/svg">
  <path d="M 323 546  C 326.36 546  329 548.64  329 552  C 329 555.36  326.36 558  323 558  C 319.64 558  317 555.36  317 552  C 317 548.64  319.64 546  323 546  Z " fill-rule="nonzero" fill="#ffffff" stroke="none" />
  <path d="M 323 546.5  C 326.08 546.5  328.5 548.92  328.5 552  C 328.5 555.08  326.08 557.5  323 557.5  C 319.92 557.5  317.5 555.08  317.5 552  C 317.5 548.92  319.92 546.5  323 546.5  Z " stroke-width="1" stroke="#797979" fill="none" />
  <path d="M 323 555  C 321.32 555  320 553.68  320 552  C 320 550.32  321.32 549  323 549  C 324.68 549  326 550.32  326 552  C 326 553.68  324.68 555  323 555  " fill-rule="nonzero" fill="#797979" stroke="none" />
</svg>