<?xml version="1.0" encoding="utf-8"?>
<svg version="1.1" xmlns:xlink="http://www.w3.org/1999/xlink" width="12px" height="12px" viewBox="266 208  12 12" xmlns="http://www.w3.org/2000/svg">
  <path d="M 272 208  C 275.36 208  278 210.64  278 214  C 278 217.36  275.36 220  272 220  C 268.64 220  266 217.36  266 214  C 266 210.64  268.64 208  272 208  Z " fill-rule="nonzero" fill="#ffffff" stroke="none" />
  <path d="M 272 208.5  C 275.08 208.5  277.5 210.92  277.5 214  C 277.5 217.08  275.08 219.5  272 219.5  C 268.92 219.5  266.5 217.08  266.5 214  C 266.5 210.92  268.92 208.5  272 208.5  Z " stroke-width="1" stroke="#797979" fill="none" />
  <path d="M 272 217  C 270.32 217  269 215.68  269 214  C 269 212.32  270.32 211  272 211  C 273.68 211  275 212.32  275 214  C 275 215.68  273.68 217  272 217  " fill-rule="nonzero" fill="#797979" stroke="none" />
</svg>