<?xml version="1.0" encoding="utf-8"?>
<svg version="1.1" xmlns:xlink="http://www.w3.org/1999/xlink" width="12px" height="12px" viewBox="317 208  12 12" xmlns="http://www.w3.org/2000/svg">
  <path d="M 323 208  C 326.36 208  329 210.64  329 214  C 329 217.36  326.36 220  323 220  C 319.64 220  317 217.36  317 214  C 317 210.64  319.64 208  323 208  Z " fill-rule="nonzero" fill="#ffffff" stroke="none" />
  <path d="M 323 208.5  C 326.08 208.5  328.5 210.92  328.5 214  C 328.5 217.08  326.08 219.5  323 219.5  C 319.92 219.5  317.5 217.08  317.5 214  C 317.5 210.92  319.92 208.5  323 208.5  Z " stroke-width="1" stroke="#797979" fill="none" />
  <path d="M 323 217  C 321.32 217  320 215.68  320 214  C 320 212.32  321.32 211  323 211  C 324.68 211  326 212.32  326 214  C 326 215.68  324.68 217  323 217  " fill-rule="nonzero" fill="#797979" stroke="none" />
</svg>