<?xml version="1.0" encoding="utf-8"?>
<svg version="1.1" xmlns:xlink="http://www.w3.org/1999/xlink" width="25px" height="25px" xmlns="http://www.w3.org/2000/svg">
  <g transform="matrix(1 0 0 1 -337 -32 )">
    <path d="M 24.4384765625 14.7379557291667  C 24.5415581597222 14.8410373263889  24.5930989583333 14.9631076388889  24.5930989583333 15.1041666666667  C 24.5930989583333 15.1584201388889  24.5876736111111 15.1963975694444  24.5768229166667 15.2180989583333  C 23.8823784722222 18.1260850694444  22.4283854166667 20.4833984375  20.21484375 22.2900390625  C 18.0013020833333 24.0966796875  15.4079861111111 25  12.4348958333333 25  C 10.8506944444444 25  9.31803385416667 24.7016059027778  7.8369140625 24.1048177083333  C 6.35579427083333 23.5080295138889  5.03472222222222 22.65625  3.87369791666667 21.5494791666667  L 1.77408854166667 23.6490885416667  C 1.56792534722222 23.8552517361111  1.32378472222222 23.9583333333333  1.04166666666667 23.9583333333333  C 0.759548611111111 23.9583333333333  0.515407986111111 23.8552517361111  0.309244791666667 23.6490885416667  C 0.103081597222222 23.4429253472222  0 23.1987847222222  0 22.9166666666667  L 0 15.625  C 0 15.3428819444444  0.103081597222222 15.0987413194444  0.309244791666667 14.892578125  C 0.515407986111111 14.6864149305556  0.759548611111111 14.5833333333333  1.04166666666667 14.5833333333333  L 8.33333333333333 14.5833333333333  C 8.61545138888889 14.5833333333333  8.85959201388889 14.6864149305556  9.06575520833333 14.892578125  C 9.27191840277778 15.0987413194444  9.375 15.3428819444444  9.375 15.625  C 9.375 15.9071180555556  9.27191840277778 16.1512586805556  9.06575520833333 16.357421875  L 6.8359375 18.5872395833333  C 7.60633680555556 19.3033854166667  8.47981770833333 19.8567708333333  9.45638020833333 20.2473958333333  C 10.4329427083333 20.6380208333333  11.4474826388889 20.8333333333333  12.5 20.8333333333333  C 13.9539930555556 20.8333333333333  15.3103298611111 20.4806857638889  16.5690104166667 19.775390625  C 17.8276909722222 19.0700954861111  18.8368055555556 18.0989583333333  19.5963541666667 16.8619791666667  C 19.7157118055556 16.6775173611111  20.0032552083333 16.0427517361111  20.458984375 14.9576822916667  C 20.5457899305556 14.7081163194444  20.7085503472222 14.5833333333333  20.947265625 14.5833333333333  L 24.072265625 14.5833333333333  C 24.2133246527778 14.5833333333333  24.3353949652778 14.6348741319444  24.4384765625 14.7379557291667  Z M 24.6907552083333 1.35091145833333  C 24.8969184027778 1.55707465277778  25 1.80121527777778  25 2.08333333333333  L 25 9.375  C 25 9.65711805555556  24.8969184027778 9.90125868055556  24.6907552083333 10.107421875  C 24.4845920138889 10.3135850694444  24.2404513888889 10.4166666666667  23.9583333333333 10.4166666666667  L 16.6666666666667 10.4166666666667  C 16.3845486111111 10.4166666666667  16.1404079861111 10.3135850694444  15.9342447916667 10.107421875  C 15.7280815972222 9.90125868055556  15.625 9.65711805555556  15.625 9.375  C 15.625 9.09288194444444  15.7280815972222 8.84874131944444  15.9342447916667 8.642578125  L 18.1803385416667 6.396484375  C 16.5744357638889 4.90993923611111  14.6809895833333 4.16666666666667  12.5 4.16666666666667  C 11.0460069444444 4.16666666666667  9.68967013888889 4.51931423611111  8.43098958333333 5.224609375  C 7.17230902777778 5.92990451388889  6.16319444444445 6.90104166666667  5.40364583333333 8.13802083333333  C 5.28428819444444 8.32248263888889  4.99674479166667 8.95724826388889  4.541015625 10.0423177083333  C 4.45421006944444 10.2918836805556  4.29144965277778 10.4166666666667  4.052734375 10.4166666666667  L 0.813802083333333 10.4166666666667  C 0.672743055555555 10.4166666666667  0.550672743055556 10.3651258680556  0.447591145833333 10.2620442708333  C 0.344509548611111 10.1589626736111  0.29296875 10.0368923611111  0.29296875 9.89583333333333  L 0.29296875 9.78190104166667  C 0.998263888888889 6.87391493055556  2.46310763888889 4.5166015625  4.6875 2.7099609375  C 6.91189236111111 0.9033203125  9.51605902777778 0  12.5 0  C 14.0842013888889 0  15.625 0.301106770833334  17.1223958333333 0.9033203125  C 18.6197916666667 1.50553385416667  19.9490017361111 2.35460069444444  21.1100260416667 3.45052083333333  L 23.2259114583333 1.35091145833333  C 23.4320746527778 1.14474826388889  23.6762152777778 1.04166666666667  23.9583333333333 1.04166666666667  C 24.2404513888889 1.04166666666667  24.4845920138889 1.14474826388889  24.6907552083333 1.35091145833333  Z " fill-rule="nonzero" fill="#ffffff" stroke="none" transform="matrix(1 0 0 1 337 32 )" />
  </g>
</svg>