<?xml version="1.0" encoding="utf-8"?>
<svg version="1.1" xmlns:xlink="http://www.w3.org/1999/xlink" width="20px" height="15px" xmlns="http://www.w3.org/2000/svg">
  <g transform="matrix(1 0 0 1 -306 -35 )">
    <path d="M 19.6387096774194 2.07070707070707  C 19.8795698924731 2.30639730639731  20 2.59259259259259  20 2.92929292929293  C 20 3.26599326599326  19.8795698924731 3.55218855218855  19.6387096774194 3.78787878787879  L 10.2967741935484 12.9292929292929  L 8.54193548387097 14.6464646464646  C 8.30107526881721 14.8821548821549  8.00860215053764 15  7.66451612903226 15  C 7.32043010752688 15  7.02795698924731 14.8821548821549  6.78709677419355 14.6464646464646  L 5.03225806451613 12.9292929292929  L 0.361290322580645 8.35858585858586  C 0.120430107526882 8.12289562289562  0 7.83670033670034  0 7.5  C 0 7.16329966329966  0.120430107526882 6.87710437710438  0.361290322580645 6.64141414141414  L 2.11612903225806 4.92424242424242  C 2.35698924731183 4.68855218855219  2.6494623655914 4.57070707070707  2.99354838709677 4.57070707070707  C 3.33763440860215 4.57070707070707  3.63010752688172 4.68855218855219  3.87096774193548 4.92424242424242  L 7.66451612903226 8.6489898989899  L 16.1290322580645 0.353535353535354  C 16.3698924731183 0.117845117845117  16.6623655913979 0  17.0064516129032 0  C 17.3505376344086 0  17.6430107526882 0.117845117845117  17.8838709677419 0.353535353535354  L 19.6387096774194 2.07070707070707  Z " fill-rule="nonzero" fill="#70b603" stroke="none" transform="matrix(1 0 0 1 306 35 )" />
  </g>
</svg>