<?xml version="1.0" encoding="utf-8"?>
<svg version="1.1" xmlns:xlink="http://www.w3.org/1999/xlink" width="20px" height="20px" xmlns="http://www.w3.org/2000/svg">
  <g transform="matrix(1 0 0 1 -333 -11 )">
    <path d="M 19.7995991983968 9.19254658385093  C 19.9331997327989 9.33057280883368  20 9.48930296756384  20 9.66873706004141  C 20 9.84817115251898  19.9331997327989 10.0069013112491  19.7995991983968 10.1449275362319  L 10.4609218436874 19.7929606625259  C 10.3273213092852 19.9309868875086  10.1736806947228 20  10 20  C 9.82631930527722 20  9.67267869071476 19.9309868875086  9.53907815631263 19.7929606625259  L 0.200400801603206 10.1449275362319  C 0.066800267201069 10.0069013112491  0 9.84817115251898  0 9.66873706004141  C 0 9.48930296756384  0.066800267201069 9.33057280883368  0.200400801603206 9.19254658385093  L 1.20240480961924 8.15734989648033  C 1.33600534402138 8.01932367149758  1.48964595858383 7.95031055900621  1.66332665330661 7.95031055900621  C 1.83700734802939 7.95031055900621  1.99064796259185 8.01932367149758  2.12424849699399 8.15734989648033  L 10 16.2939958592133  L 17.875751503006 8.15734989648033  C 18.0093520374081 8.01932367149758  18.1629926519706 7.95031055900621  18.3366733466934 7.95031055900621  C 18.5103540414162 7.95031055900621  18.6639946559786 8.01932367149758  18.7975951903808 8.15734989648033  L 19.7995991983968 9.19254658385093  Z M 19.7995991983968 1.24223602484472  C 19.9331997327989 1.38026224982746  20 1.53899240855762  20 1.7184265010352  C 20 1.89786059351276  19.9331997327989 2.05659075224292  19.7995991983968 2.19461697722567  L 10.4609218436874 11.8426501035197  C 10.3273213092852 11.9806763285024  10.1736806947228 12.0496894409938  10 12.0496894409938  C 9.82631930527722 12.0496894409938  9.67267869071476 11.9806763285024  9.53907815631263 11.8426501035197  L 0.200400801603206 2.19461697722567  C 0.066800267201069 2.05659075224292  0 1.89786059351276  0 1.7184265010352  C 0 1.53899240855762  0.066800267201069 1.38026224982746  0.200400801603206 1.24223602484472  L 1.20240480961924 0.20703933747412  C 1.33600534402138 0.0690131124913718  1.48964595858383 0  1.66332665330661 0  C 1.83700734802939 0  1.99064796259185 0.0690131124913718  2.12424849699399 0.20703933747412  L 10 8.34368530020704  L 17.875751503006 0.20703933747412  C 18.0093520374081 0.0690131124913718  18.1629926519706 0  18.3366733466934 0  C 18.5103540414162 0  18.6639946559786 0.0690131124913718  18.7975951903808 0.20703933747412  L 19.7995991983968 1.24223602484472  Z " fill-rule="nonzero" fill="#000000" stroke="none" transform="matrix(1 0 0 1 333 11 )" />
  </g>
</svg>