<svg t="1577252589089" class="icon" viewBox="0 0 1024 1024" version="1.1" xmlns="http://www.w3.org/2000/svg" p-id="4737" width="200" height="200"><path d="M952.569689 401.488563a107.297211 107.297211 0 0 0-14.208811-41.384885 1.655395 1.655395 0 0 0-0.165539-0.303489 100.316961 100.316961 0 0 0-19.312946-21.6305l-15.753847-13.325933L594.204176 63.456823C549.039472 25.21719 475.015708 25.21719 429.795824 63.456823l-309.00714 261.359343-15.753846 13.325933a100.316961 100.316961 0 0 0-19.312947 21.6305l-0.165539 0.303489a107.242032 107.242032 0 0 0-14.181221 41.384885 110.580412 110.580412 0 0 0-0.882877 13.960501v470.877219c0 56.614522 42.929921 102.938004 95.433544 102.938004H858.046612c52.420854 0 95.461134-46.323481 95.461134-102.938004V415.449064a115.877677 115.877677 0 0 0-0.938057-13.960501z m-236.831901 169.181409C707.157322 631.119493 651.122188 681.471103 590.203637 684.230096a143.82627 143.82627 0 0 1-80.231496-19.092227 97.944227 97.944227 0 0 1-7.118201 8.856365q-68.20229 68.42301-136.597709 136.59771c-17.160932 17.050573-42.516072 14.20881-54.572868-5.517985-1.931295-3.172841-3.365971-6.649171-5.021367-9.987552v-16.553954l48.613445-56.338623-48.613445-56.780062v-16.553954c14.2364-33.549347 46.433841-33.107908 65.829557-9.573703 10.070322 12.305106 22.071939 23.037586 32.41816 33.742476l57.138731-57.276681c-0.524209-1.076007-1.407086-2.924532-2.317554-4.745467-36.280749-71.7338-7.697589-154.696699 65.388118-188.080506 12.801724-5.849064 27.065715-8.497696 40.667547-12.636185h30.845534a15.257228 15.257228 0 0 0 3.61428 1.682985c78.686461 13.905321 126.665337 79.707288 115.491419 158.697239z" fill="#e6e6e6" p-id="4738"></path><path d="M582.14738 479.071427a69.223117 69.223117 0 0 0-69.774916 68.726498c0 37.522296 30.817944 68.533369 67.733261 68.39542 38.625892-0.13795 70.216355-31.424923 69.609377-68.974808-0.634568-36.667008-31.507692-67.816031-67.567722-68.14711z" fill="#e6e6e6" p-id="4739"></path></svg>