<svg t="1578566820880" class="icon" viewBox="0 0 1024 1024" version="1.1" xmlns="http://www.w3.org/2000/svg" p-id="3578" width="200" height="200"><path d="M96.5 160.5v349.3c0 230.3 188.4 420.2 418.7 418.7 228.5-1.5 413.3-187.1 413.3-416v-352c0-35.3-28.7-64-64-64h-704c-35.3 0-64 28.7-64 64zM753 442.2c0 2.8-0.4 5.6-1.1 8.3V613c0 18.3-14.8 33.1-33.1 33.1s-33.1-14.8-33.1-33.1V475.2H582.2V555c64.8 15.2 110.6 73 110.6 139.5h-0.2c-0.3 18.1-15.2 32.6-33.3 32.5-18.1-0.1-32.8-14.9-32.8-33 0-0.6 0.1-1.2 0.1-1.9-1.3-42.1-36.2-75.4-78.3-74.8-42.1 0.6-76 35-76 77.1h-0.3c-0.1 12.4-7.1 23.7-18.1 29.3-11 5.6-24.3 4.5-34.3-2.8-10-7.3-15.1-19.5-13.3-31.8 2.4-64.2 47.2-119 109.7-134.1v-80H411.4v138c0 18.3-14.8 33.1-33.1 33.1s-33.1-14.8-33.1-33.1V442.1c0-8.8 3.5-17.2 9.7-23.4 6.2-6.2 14.6-9.7 23.3-9.7H516v-22H380.3c-18.3 0-33.1-14.8-33.1-33.1s14.8-33.1 33.1-33.1h135.8c0-18.3 14.8-33.1 33.1-33.1s33.1 14.8 33.1 33.1h136.4c18.3 0 33.1 14.8 33.1 33.1S737 387 718.7 387H582.2v22H720c8.8 0 17.2 3.5 23.4 9.7 6.1 6.3 9.6 14.7 9.6 23.5z m-9.1-178.6H314.1v429.8c0 18.3-14.8 33.1-33.1 33.1s-33.1-14.8-33.1-33.1V230.6c0-18.3 14.8-33.1 33.1-33.1h462.9c18.3 0 33.1 14.8 33.1 33.1 0 18.2-14.8 33-33.1 33z" p-id="3579" fill="#E6E6E6"></path></svg>