<?xml version="1.0" encoding="utf-8"?>
<svg version="1.1" xmlns:xlink="http://www.w3.org/1999/xlink" width="12px" height="12px" viewBox="305 277  12 12" xmlns="http://www.w3.org/2000/svg">
  <path d="M 311 277  C 314.36 277  317 279.64  317 283  C 317 286.36  314.36 289  311 289  C 307.64 289  305 286.36  305 283  C 305 279.64  307.64 277  311 277  Z " fill-rule="nonzero" fill="#ffffff" stroke="none" />
  <path d="M 311 277.5  C 314.08 277.5  316.5 279.92  316.5 283  C 316.5 286.08  314.08 288.5  311 288.5  C 307.92 288.5  305.5 286.08  305.5 283  C 305.5 279.92  307.92 277.5  311 277.5  Z " stroke-width="1" stroke="#797979" fill="none" />
  <path d="M 311 286  C 309.32 286  308 284.68  308 283  C 308 281.32  309.32 280  311 280  C 312.68 280  314 281.32  314 283  C 314 284.68  312.68 286  311 286  " fill-rule="nonzero" fill="#797979" stroke="none" />
</svg>