<?xml version="1.0" encoding="utf-8"?>
<svg version="1.1" xmlns:xlink="http://www.w3.org/1999/xlink" width="12px" height="12px" viewBox="244 277  12 12" xmlns="http://www.w3.org/2000/svg">
  <path d="M 250 277  C 253.36 277  256 279.64  256 283  C 256 286.36  253.36 289  250 289  C 246.64 289  244 286.36  244 283  C 244 279.64  246.64 277  250 277  Z " fill-rule="nonzero" fill="#ffffff" stroke="none" />
  <path d="M 250 277.5  C 253.08 277.5  255.5 279.92  255.5 283  C 255.5 286.08  253.08 288.5  250 288.5  C 246.92 288.5  244.5 286.08  244.5 283  C 244.5 279.92  246.92 277.5  250 277.5  Z " stroke-width="1" stroke="#797979" fill="none" />
  <path d="M 250 286  C 248.32 286  247 284.68  247 283  C 247 281.32  248.32 280  250 280  C 251.68 280  253 281.32  253 283  C 253 284.68  251.68 286  250 286  " fill-rule="nonzero" fill="#797979" stroke="none" />
</svg>